<svg xmlns="http://www.w3.org/2000/svg" width="500" height="500"><g fill="#fff" fill-opacity=".6"><path fill="#9ee690" fill-opacity="1" d="M0 0h500v500H0z"/><path style="isolation:auto;mix-blend-mode:normal;solid-color:#000;solid-opacity:1" d="M130.513 72.283a45.213 45.213 0 01-45.214 45.213 45.213 45.213 0 01-45.213-45.213A45.213 45.213 0 0185.3 27.07a45.213 45.213 0 0145.214 45.213zM139.11 289.828a45.213 45.213 0 01-45.213 45.214 45.213 45.213 0 01-45.213-45.214 45.213 45.213 0 0145.213-45.213 45.213 45.213 0 0145.214 45.213zM395.05 110.95a45.213 45.213 0 01-45.213 45.213 45.213 45.213 0 01-45.213-45.213 45.213 45.213 0 0145.213-45.214 45.213 45.213 0 0145.213 45.214zM317.471 423.604a45.213 45.213 0 01-45.213 45.213 45.213 45.213 0 01-45.213-45.213 45.213 45.213 0 0145.213-45.213 45.213 45.213 0 0145.213 45.213zM486.14 298.544a45.213 45.213 0 01-45.213 45.213 45.213 45.213 0 01-45.213-45.213 45.213 45.213 0 0145.213-45.213 45.213 45.213 0 0145.213 45.213z" color="#000" opacity=".25" fill="#d129ff" fill-opacity=".96" fill-rule="evenodd"/></g></svg>