<svg xmlns="http://www.w3.org/2000/svg" version="1.0" width="500" height="500"><g stroke-width=".855" fill="gray" stroke="gray" stroke-linecap="round" stroke-linejoin="round"><path style="line-height:125%;-inkscape-font-specification:'Arial Unicode MS';text-align:start" d="M292.082 274.651c.354.141 1.679.423 3.976.846 36.224 5.638 69.805 15.926 88.006 30.865 18.2 14.94 27.3 34.53 27.3 58.77 0 24.805-9.984 46.298-29.95 64.479-19.968 18.18-53.992 28.046-89.332 29.597l-14.863 18.475h-7.127V459.63c-36.047-3.241-63.7-12.578-82.96-28.01-19.261-15.433-30.128-37.032-32.602-64.796l47.71-6.765c3.71 20.859 11.22 36.925 22.528 48.2 11.31 11.275 26.417 17.688 45.324 19.238V306.362c-35.87-6.201-62.729-16.56-80.575-31.076-17.847-14.517-26.77-33.19-26.77-56.023 0-22.69 8.835-42.175 26.505-58.453 17.67-16.278 44.616-25.685 80.84-28.223v-18.18h21.99v18.18c30.04 2.397 60.087 10.007 77.404 22.832 17.316 12.826 28.184 30.795 32.601 53.908l-49.564 5.708c-2.828-14.375-8.747-25.756-17.759-34.142-9.011-8.385-27.485-13.776-42.682-16.172zm-21.99-4.65V164.297c-19.26 2.678-34.015 8.844-44.263 18.498-10.25 9.654-15.373 20.824-15.373 33.508 0 14.516 5.3 25.967 15.903 34.353 10.602 8.386 25.18 14.834 43.733 19.343zm21.99 157.496c18.554-2.255 40.208-8.703 52.224-19.344 12.016-10.64 18.023-24.064 18.024-40.272 0-14.235-4.55-25.686-13.65-34.353-9.1-8.668-32.213-16.032-56.598-22.092z" font-weight="400" font-size="323.145" font-family="Arial Unicode MS" stroke-width="8.806" transform="matrix(1.3306 0 0 1.19798 -125.016 -103.388)"/><path d="M282.947 120.87v350.35" fill-rule="evenodd" stroke-width="51.278" transform="matrix(1.3306 0 0 1.19798 -125.016 -103.388)"/></g></svg>