<svg xmlns="http://www.w3.org/2000/svg" version="1.0" width="500" height="500"><g transform="matrix(1.68779 0 0 1.68221 -3.768 -473.04)"><ellipse cx="150.355" cy="429.815" rx="142.199" ry="142.69" fill="#ac39ac" stroke="#fff" stroke-width="11.848" stroke-linejoin="round"/><path d="M103.033 349.353a71.665 71.665 0 00-31.62 7.774c-.113.052-.216.112-.33.165-.146.075-.3.132-.447.21v.014C28.379 377.61 16.28 430.735 35.919 469.888c27.276 57.162 97.057 76.705 152.984 58.658 51.284-14.18 94.037-64.736 83.417-121.84-.066-.354-.11-.707-.18-1.062h-.03c-5.976-39.682-46.633-63.499-84.074-54.164-13.459 3.355-25.446 8.932-36.152 16.057-13.663-12.136-31.196-18.402-48.85-18.184zm100.26 35.155c16.05-.398 32.296 10.98 34.416 26.842l.075.54.105.539c7.081 35.883-23.581 72.836-58.977 82.624l-.36.104-.358.105c-40.336 13.017-92.676-2.542-110.91-40.757l-.074-.15-.075-.165c-11.177-22.283-3.452-54.993 18.892-65.308l.389-.18.389-.21c11.827-6.193 27.332-4.996 38.425 2.457-17.346 19.33-30.09 42.583-39.742 64.2a17.507 17.507 0 001.606 17.592 17.451 17.451 0 0016.103 7.212 17.463 17.463 0 0014.165-10.53c8.986-20.123 20.333-39.83 34.417-55.331 12.962 13.813 23.222 30.044 29.256 47.663a17.47 17.47 0 0013.166 11.719 17.447 17.447 0 0016.66-5.728 17.506 17.506 0 003.201-17.345c-7.468-21.804-19.59-41.492-34.836-58.239 5.456-2.896 11.181-5.227 17.246-6.74a31.445 31.445 0 016.82-.914z" fill="#fff" fill-rule="evenodd"/></g></svg>