<svg xmlns="http://www.w3.org/2000/svg" version="1.0" width="500" height="500"><circle cx="249.961" cy="250.039" r="239.975" fill="#ac39ac" stroke="#fff" stroke-width="19.972" stroke-linejoin="round" paint-order="fill markers stroke"/><g stroke="#fff" stroke-linecap="round" stroke-linejoin="round"><path transform="matrix(1.46021 0 0 1.2365 -361.884 20.96)" style="line-height:125%;-inkscape-font-specification:'Arial Unicode MS';text-align:start" d="M424.477 167.18c.21.105.999.315 2.366.63 21.564 4.208 41.556 11.887 52.39 23.037 10.835 11.15 16.252 25.772 16.252 43.865 0 18.513-5.943 34.555-17.83 48.124-11.886 13.57-32.14 20.933-53.178 22.09l-8.849 13.79h-4.242v-13.474c-21.46-2.42-37.922-9.388-49.387-20.907-11.466-11.518-17.935-27.639-19.408-48.361l28.401-5.05c2.21 15.569 6.68 27.56 13.412 35.976 6.732 8.415 15.726 13.201 26.982 14.358v-90.41c-21.354-4.63-37.343-12.36-47.967-23.195-10.624-10.835-15.937-24.773-15.937-41.814 0-16.935 5.26-31.478 15.779-43.627 10.519-12.15 26.56-19.171 48.125-21.065v-13.57h13.09v13.57c17.883 1.789 35.77 7.469 46.08 17.041 10.308 9.573 16.777 22.984 19.407 40.235l-29.506 4.26c-1.683-10.729-5.207-19.223-10.572-25.482-5.364-6.258-16.362-10.282-25.408-12.07zm-13.091-3.472V84.815c-11.466 1.999-20.25 6.601-26.35 13.806-6.102 7.206-9.152 15.542-9.152 25.01 0 10.834 3.156 19.38 9.467 25.64 6.311 6.259 14.99 11.071 26.035 14.437zm13.09 117.55c11.045-1.683 23.937-6.495 31.09-14.437 7.152-7.942 10.729-17.961 10.73-30.058-.001-10.624-2.71-19.171-8.127-25.64-5.417-6.47-19.176-11.966-33.692-16.489z" font-weight="400" font-size="323.145" font-family="Arial Unicode MS" fill="#fff" stroke-width="3.434"/><path d="M250.76 82.817v334.366" fill="none" stroke-width="42.605"/></g></svg>