<svg xmlns="http://www.w3.org/2000/svg" version="1.0" width="500" height="500"><g transform="translate(0 -80)"><circle cx="250" cy="330" r="240" fill="#ac39ac" stroke="#fff" stroke-width="20" stroke-linejoin="round"/><path d="M161.844 158.454c-22.948 0-22.948 11.527-22.948 45.897C138.896 227.299 93 319.09 93 342.039v114.74c0 12.994 10.718 22.948 22.948 22.948h91.792c13.76 0 22.949-9.19 22.949-22.948V342.04c0-22.948-45.897-114.74-45.897-137.688 0-35.135 0-45.897-22.948-45.897zm180.716 22.948l-22.948 91.793h25.817l17.21-68.844h51.634v-22.949zm-88.923 114.74l22.948 160.637s0 22.948 22.948 22.948h45.896c22.948 0 22.948-22.948 22.948-22.948l22.948-160.636z" fill="#fff"/></g></svg>