<svg xmlns="http://www.w3.org/2000/svg" version="1.0" width="500" height="500"><g transform="matrix(1.68779 0 0 1.68221 -3.768 -473.04)"><ellipse cx="150.355" cy="429.815" rx="142.199" ry="142.69" fill="#ac39ac" stroke="#fff" stroke-width="11.848" stroke-linejoin="round"/><path d="M127.49 476.71s-17.395-23.294-35.48-57.18c-14.35-26.884-27.622-62.294-28.837-66.056 9.796-8.135 59.787-33.846 69.923-36.365 2.947 13.002 7.56 38.465 17.31 63.202 10.07 25.558 22.195 45.483 26.707 52.217-10.798 11.632-49.624 44.181-49.624 44.181zm34.064-14.249c1.257 11.912 36.405 67.295 48.289 77.34 4.587 3.876 7.794.713 15.585-5.572 7.79-6.29 10.723-11.646 7.884-19.218-5.827-15.543-31.316-71.346-43.284-80.288-11.514-19.141-21.162-33.612-30.65-60.15-9.817-27.456-16.083-55.347-19.84-71.733-13.363 4.428-35.494 15.14-49.11 22.31-15.17 7.99-26.022 15.79-38.076 23.173 3.813 12.662 12.93 43.85 31.97 77.541 15.044 26.622 27.692 47.819 41.955 63.945zM108.7 351.675c0-6.159 4.618-11.155 10.313-11.155 5.696 0 10.313 4.996 10.313 11.155 0 6.163-4.617 11.16-10.313 11.16-5.695 0-10.313-4.997-10.313-11.16z" fill="#fff" fill-rule="evenodd"/><path d="M161.554 462.461c1.257 11.912 36.405 67.295 48.289 77.34 4.587 3.876 7.794.713 15.585-5.572 7.79-6.29 10.723-11.646 7.884-19.218-5.827-15.543-31.316-71.346-43.284-80.288-11.514-19.141-21.162-33.612-30.65-60.15-9.817-27.456-16.083-55.347-19.84-71.733-13.363 4.428-35.494 15.14-49.11 22.31-15.17 7.99-26.022 15.79-38.076 23.173 3.813 12.662 12.93 43.85 31.97 77.541 15.044 26.622 27.692 47.819 41.955 63.945z" opacity=".25" fill="#fff" fill-rule="evenodd"/></g></svg>