<svg xmlns="http://www.w3.org/2000/svg" version="1.0" width="580" height="580"><g style="display:inline"><ellipse style="fill:#0092da;fill-opacity:1;stroke:#fff;stroke-width:20;stroke-linejoin:round;stroke-miterlimit:4;stroke-dasharray:none;stroke-opacity:1" cx="290.435" cy="290.829" rx="273.934" ry="274.361"/><path style="font-style:normal;font-variant:normal;font-weight:400;font-stretch:normal;font-size:40px;line-height:125%;font-family:NPSPICT3;-inkscape-font-specification:NPSPICT3;text-align:start;writing-mode:lr-tb;text-anchor:start;fill:#fff;fill-opacity:1;stroke:none;stroke-width:13.59924126px;stroke-linecap:butt;stroke-linejoin:miter;stroke-opacity:1" d="M426.397 267.402c0 10.514-5.075 15.771-15.223 15.771h-53.852c-10.16 0-15.24-5.257-15.24-15.77v-25.566c0-10.159 5.08-15.239 15.24-15.239h53.852c10.148 0 15.223 5.08 15.223 15.24zm-153.39.548c0 10.149-5.262 15.223-15.787 15.223H140.816c-10.16 0-15.24-5.074-15.24-15.223v-26.113c0-10.159 5.08-15.239 15.24-15.239H257.22c10.525 0 15.787 5.08 15.787 15.24zm224.255 122.397H472.63V254.354c0-21.038-7.344-38.809-22.03-53.313-14.686-14.503-32.365-21.754-53.038-21.755H142.99c-21.039 0-38.81 7.252-53.313 21.755-14.503 14.504-21.755 32.275-21.755 53.313v96.284c0 15.228 5.44 28.282 16.318 39.16 10.88 10.88 23.933 16.32 39.161 16.32h87.585c1.085-15.594 7.249-28.83 18.493-39.71 11.244-10.878 24.846-16.318 40.805-16.318 15.593 0 29.1 5.44 40.522 16.319 11.42 10.879 17.497 23.932 18.227 39.16l179.814.91c0-10.149-1.438-16.132-11.586-16.132zm-226.977 38.065c-5.08 0-9.432-1.812-13.057-5.437-3.624-3.624-5.437-7.976-5.436-13.056 0-5.434 1.812-9.875 5.436-13.322 3.625-3.447 7.977-5.171 13.057-5.171 5.068 0 9.418 1.724 13.048 5.17 3.63 3.448 5.445 7.889 5.445 13.323 0 5.08-1.815 9.432-5.445 13.056-3.63 3.625-7.98 5.437-13.048 5.437zm0-61.456c-11.975 0-22.132 4.17-30.47 12.509-8.34 8.34-12.51 18.49-12.51 30.454 0 11.61 4.17 21.583 12.51 29.923 8.338 8.339 18.495 12.508 30.47 12.508 11.598 0 21.57-4.17 29.914-12.508 8.344-8.34 12.517-18.314 12.517-29.923 0-11.964-4.173-22.115-12.517-30.454-8.345-8.339-18.316-12.508-29.914-12.509z"/></g></svg>