<svg xmlns="http://www.w3.org/2000/svg" version="1.0" width="500" height="500"><g transform="translate(0 -80)"><circle cx="250" cy="330" r="240" fill="#ac39ac" stroke="#fff" stroke-width="20" stroke-linejoin="round"/><g fill="#fff" stroke-width="1.045"><path d="M250.291 164.05H115.858c-2.61 0-5.115.983-6.912 2.867-1.79 1.885-2.722 4.375-2.573 6.962l14.376 248.154c.299 4.981 4.452 8.839 9.492 8.839h105.682c5.04 0 9.186-3.873 9.484-8.86l14.362-248.178c.156-2.586-.776-5.032-2.573-6.931-1.79-1.87-4.302-2.853-6.905-2.853zM245.064 457.645c0-5.195-4.436-9.637-9.686-9.637H130.763c-5.249 0-9.581 4.442-9.581 9.637 0 0 .074 28.029.074 28.605 0 9.422 27.686 17.019 61.83 17.019 34.128 0 61.814-7.56 61.814-16.99 0-.59.164-28.634.164-28.634zM376.62 164.974c-11.677 0-21.296 9.459-21.296 21.038v297.024c0 11.557 9.477 20.935 21.147 20.935 11.67 0 21.161-9.378 21.161-20.935V186.012c-.007-11.58-9.32-21.038-21.012-21.038zM333.67 175.223h-42.666c-5.555 0-10.036 4.516-10.036 10.006 0 5.506 4.481 10.02 10.036 10.02h42.666c5.563 0 10.06-4.514 10.06-10.02-.008-5.49-4.497-10.006-10.06-10.006zM333.67 205.034h-42.666c-5.555 0-10.036 4.515-10.036 10.013s4.481 10.013 10.036 10.013h42.666c5.563 0 10.06-4.515 10.06-10.013-.008-5.498-4.497-10.013-10.06-10.013zM333.67 235.31h-42.666c-5.555 0-10.036 4.286-10.036 9.783 0 5.498 4.481 9.784 10.036 9.784h42.666c5.563 0 10.06-4.286 10.06-9.784-.008-5.497-4.497-9.784-10.06-9.784zM333.67 265.12h-42.666c-5.555 0-10.036 4.286-10.036 9.784 0 5.498 4.481 9.776 10.036 9.776h42.666c5.563 0 10.06-4.286 10.06-9.776-.008-5.498-4.497-9.784-10.06-9.784z"/></g></g></svg>