<svg xmlns="http://www.w3.org/2000/svg" version="1.0" width="500" height="500"><circle cx="250" cy="330" r="240" fill="#7e5a20" stroke="#fff" stroke-width="20" stroke-linejoin="round" transform="translate(0 -80)"/><g stroke-width="1.137" fill="#fff"><path d="M293.798 35.545c-3.191 2.062-6.222 4.398-9.172 6.871l9.177 21.743-16.685 7.058-6.89-16.344c-2.889 2.36-5.824 4.563-8.928 6.44l28.922 68.51-155.22 65.57-36.345-86.066c-.713.25-1.407.525-2.11.821-6.975 2.996-13.42 8.276-19.72 13.934l13.476-5.7 11.4 26.916-16.684 7.059-10.9-25.82c-2.269 2.07-4.534 4.173-6.808 6.174l140.907 333.653c3.422-3.119 6.864-6.275 10.356-9.18l-4.076 1.724-11.401-26.916 16.685-7.058 10.236 24.27a41.055 41.055 0 013.104-1.474c2.43-1.024 4.92-1.737 7.467-2.26l-30.346-71.908L365.46 308.03l37.04 87.726c10.947-7.971 20.474-19.145 32.703-25.424zm14.514 63.038l11.363 26.914-16.646 7.023-11.364-26.914zm-11.897 45.961l62.851 148.803-155.218 65.531-62.851-148.802zm37.808 15.343l11.363 26.914-16.683 7.021-11.364-26.914zm-218.009 19.8l11.364 26.913-16.648 7.06-11.401-26.916zm243.883 41.502l11.363 26.914-16.648 7.06-11.362-26.951zm-218.01 19.836l11.4 26.916-16.683 7.02-11.364-26.913zm243.92 41.467l11.364 26.914-16.685 7.058-11.364-26.914zm-218.01 19.836l11.364 26.914-16.647 7.023-11.4-26.915zm243.884 41.466l11.362 26.95-16.646 7.024-11.364-26.914zm-217.973 19.838l11.364 26.914-16.685 7.058-11.362-26.95z"/><path d="M261.3 61.312a46.814 46.814 0 01-6.445 3.27c-18.063 7.022-40.713 1.901-58.527 8.45-18.14 6.45-30.871 24.137-47.7 30.458-15.931 5.769-34.23.342-49.97 5.837l36.344 86.065 155.22-65.568zM141.188 210.073L296.41 144.52l62.845 148.808-155.222 65.554zM365.461 308.03l-155.218 65.532 30.348 71.871c14.433-2.958 30.42.763 44.575-4.363 16.829-6.321 29.597-24.006 47.737-30.456 17.814-6.549 40.464-1.428 58.527-8.45 3.938-1.614 7.567-3.857 11.07-6.408z" opacity=".332"/></g></svg>