<svg xmlns="http://www.w3.org/2000/svg" width="500" height="500"><path d="M250 284.286c76 0 76 34.285 76 102.857C326 421.429 287.653 490 326 490c38 0 66.552-39.187 76-102.857 9.448-63.67 0-102.857 0-137.143 0-68.571 38-137.143 38-171.429 0-34.285-15.21-61.117-38-68.571-76 0-76 34.286-152 34.286S174 10 98 10c-22.77 7.454-38 34.286-38 68.571C60 112.857 98 181.43 98 250c0 34.286-4.65 88.229 0 137.143S136 490 174 490c38.33 0 0-68.571 0-102.857 0-68.572 0-102.857 76-102.857z" stroke="#fff" stroke-width="20" fill="#ac39ac"/></svg>