<svg xmlns="http://www.w3.org/2000/svg" width="500" height="500"><path d="M250.001 85c-39.795 0-79.96 16.403-107.142 48.75-23.57 28.049-30 48.75-33.214 81.25-99.296.773-99.642 35.156-99.642 260H490c0-224.844-.347-259.228-99.643-260-3.214-32.5-10.224-53.752-33.214-81.25C330.046 101.339 289.797 85 250.001 85zm0 65c43.934-.163 68.571 32.5 70.714 65H179.287c2.143-32.5 26.78-64.841 70.714-65z" fill="#ac39ac" stroke="#fff" stroke-width="20"/><path d="M210.57 417.561v-30.664h-60.569v-77.734h60.569v-60.937h78.455v60.937h60.976v77.734H289.026v61.329H210.57z" fill="#fff" paint-order="fill markers stroke"/></svg>