<svg xmlns="http://www.w3.org/2000/svg" version="1.0" width="500" height="500"><g transform="translate(0 -80)"><circle cx="250" cy="330" r="240" fill="#7e5a20" stroke="#fff" stroke-width="20"/><g stroke-width="1.072" font-weight="400" font-size="40" font-family="NPSPICT3" fill="#fff"><path d="M316.31 293.938H96.826c-5.634 0-10.469 2.54-14.503 7.619-4.035 5.079-6.053 10.921-6.053 17.528 0 7.63 2.018 13.857 6.053 18.68 4.034 4.823 8.869 7.234 14.503 7.234H316.31c5.646 0 10.483-2.411 14.512-7.235 4.029-4.822 6.043-11.049 6.043-18.68 0-6.606-2.014-12.448-6.043-17.527-4.029-5.08-8.866-7.619-14.512-7.619zM329.896 361.03H83.24c-6.331 0-11.764 2.014-16.298 6.043-4.535 4.029-6.802 8.663-6.802 13.903 0 6.053 2.267 10.992 6.802 14.817 4.534 3.826 9.967 5.739 16.298 5.739h246.657c6.345 0 11.782-1.913 16.31-5.739 4.526-3.825 6.79-8.764 6.79-14.817 0-5.24-2.264-9.874-6.79-13.903-4.528-4.029-9.965-6.043-16.31-6.043zM316.31 417.563H96.826c-5.634 0-10.469 2.54-14.503 7.618-4.035 5.079-6.053 10.922-6.053 17.528 0 7.63 2.018 13.857 6.053 18.68 4.034 4.823 8.869 7.234 14.503 7.234H316.31c5.646 0 10.483-2.411 14.512-7.234s6.043-11.05 6.043-18.68c0-6.606-2.014-12.45-6.043-17.528-4.029-5.079-8.866-7.618-14.512-7.618z" style="line-height:125%;-inkscape-font-specification:NPSPICT3;text-align:start"/></g><path style="line-height:125%;-inkscape-font-specification:NPSPICT3;text-align:start" d="M287.332 117.291l23.945 84.476h112.625l-29.362 233.08h-99.818l-29.818-233.08h22.58l-23.49-78.543z" font-weight="400" font-size="40" font-family="NPSPICT3" fill="#fff"/></g></svg>