<svg xmlns="http://www.w3.org/2000/svg" version="1.0" width="500" height="500"><circle cx="250" cy="250" r="250" fill="red"/><g stroke-width="1.264" fill="#fff" fill-rule="evenodd"><path d="M156.155 401.356c-28.316-16.683-45.574-55.688-32.83-113.984 8.939-40.896 34.987-91.367 15.024-133.393 24.217 17.484 49.395 59.06 74.788 106.018 1.75-50.782-23.477-84.054-5.342-153.448 12.443 85.85 62.358 91.17 87.698 169.258 10.778-36.714 33.2-48.799 22.258-139.963 110.182 157.177 47.384 213.011 25.375 269.232l7.123-78.12c-34.557 104.342-62.244 123.591-87.253 146.94 13.977-48.98 19.489-97.96-8.904-146.94-6.893 80.42-26.348 63.684-30.271 128.34-38.9-30.668-46.89-62.127-53.865-113.46-5.293 6.007-14.23 31.114-13.8 59.52z"/><path d="M236.73 26.105c-28.814 122.216 23.795 121.143 52.976 192.973 20.468-110.76-40.765-85.839-52.975-192.973z"/></g></svg>