<svg xmlns="http://www.w3.org/2000/svg" version="1.0" width="500" height="500"><g transform="translate(0 -80)" stroke="#fff"><circle cx="250" cy="330" r="240" fill="#0092da" stroke-width="20" stroke-linejoin="round"/><g transform="matrix(.59542 -.00416 .00416 .59549 76.152 157.441)" stroke-width="1.163" fill="#fff"><path d="M47.546 43.394l-3.2 494.727" fill-rule="evenodd" stroke-width="41.68" stroke-linecap="round"/><path d="M50.745 485.35l479.85 3.199" fill-rule="evenodd" stroke-width="41.68"/><path d="M533.793 528.524l3.2-384.485" fill-rule="evenodd" stroke-width="41.68" stroke-linecap="round"/><rect ry="22.454" y="393.631" x="237.127" height="38.605" width="207.966" rx="22.456" stroke-width="40.369"/><ellipse transform="matrix(18.92139 0 0 19.88919 29.573 29.583)" cx="7.768" cy="16.018" rx="1.518" ry="1.339" stroke-width="2.676"/><rect ry="4.01" y="423.963" x="119.978" height="6.894" width="80.291" rx="4.01" stroke-width="35.104"/><path d="M55.504 249.652l479.85 3.199" fill-rule="evenodd" stroke-width="41.68"/><rect ry="22.454" y="159.186" x="241.673" height="38.605" width="207.966" rx="22.456" stroke-width="40.369"/><ellipse transform="matrix(18.92139 0 0 19.88919 34.118 -204.861)" cx="7.768" cy="16.018" rx="1.518" ry="1.339" stroke-width="2.676"/><rect ry="4.01" y="189.519" x="124.524" height="6.894" width="80.291" rx="4.01" stroke-width="35.104"/></g></g></svg>