<svg xmlns="http://www.w3.org/2000/svg" version="1.0" width="500" height="500"><g transform="translate(0 -80)"><circle cx="250" cy="330" r="240" fill="#0092da" stroke="#fff" stroke-width="20" stroke-linejoin="round"/><g stroke-width="1.131" fill="#fff"><path d="M253.046 448.487l7.474 61.373c.9 6.7 4.921 10.606 12.065 11.717 4.914.675 9.214-.719 12.898-4.182 3.684-3.462 5.192-7.65 4.524-12.565l-8.823-69.737c-.893-5.14-4.008-8.25-6.981-12.396l-22.873-31.894 22.115-38.525 11.053 14.069c.893 1.342 2.236 2.348 4.029 3.016l24.842 12.065c1.11.443 2.113.664 3.006.664 3.129 0 5.81-1.228 8.047-3.686 2.235-2.457 3.353-5.25 3.353-8.379 0-5.582-2.682-9.266-8.046-11.052L300.58 348.26l-27.473-33.179c-3.797-4.464-9.158-7.255-16.083-8.373-12.059-1.786-21.104 2.457-27.136 12.729l-30.49 52.605c-2.01 3.353-2.904 7.484-2.679 12.392l1.002 66.673-23.118 49.588c-.893 2.011-1.448 3.685-1.666 5.02-.675 4.247.216 7.99 2.674 11.227 2.457 3.238 5.809 5.194 10.055 5.869 7.144 1.11 12.168-1.346 15.071-7.372l25.47-54.281a15.5 15.5 0 001.34-6.36l-.338-41.215zm17.72-144.796c6.033 0 11.281-2.177 15.746-6.533 4.465-4.355 6.697-9.659 6.697-15.91 0-6.031-2.232-11.282-6.697-15.75s-9.713-6.702-15.746-6.702c-6.257 0-11.564 2.234-15.92 6.702-4.355 4.468-6.533 9.719-6.533 15.75 0 6.251 2.178 11.555 6.534 15.91 4.355 4.356 9.662 6.534 15.92 6.533zm-78.402 61.316l33.506-57.625c2.236-3.796 1.456-6.7-2.341-8.71l-10.726-6.37c-3.796-2.23-6.7-1.446-8.711 2.351l-33.506 57.625c-2.229 3.797-1.445 6.7 2.352 8.711l10.715 6.36c3.797 2.235 6.7 1.455 8.711-2.342z" style="line-height:125%;-inkscape-font-specification:NPSPICT3;text-align:start" font-weight="400" font-size="40" font-family="NPSPICT3"/><g transform="matrix(.72079 0 0 .72078 42.197 52.31)" stroke="#fff" stroke-linecap="round" stroke-linejoin="round"><path d="M31.672 267.243L288.3 130.375l256.627 136.868-17.183 17.498-85.795-34.606-153.741-18.503-154.092 18.236-85.347 34.488z" fill-rule="evenodd" stroke-width="25.95"/><rect ry="0" y="266.578" x="456.8" height="308.131" width="31.996" stroke-width="28.462"/><rect width="31.996" height="308.131" x="84.8" y="266.578" ry="0" stroke-width="28.462"/></g></g></g></svg>