<svg xmlns="http://www.w3.org/2000/svg" version="1.0" width="500" height="500"><g stroke-width=".987" color="#000" font-weight="400" font-family="sans-serif" fill="#666"><path d="M432.26 324.393c-111.754-46.126-251.978-45.249-364.11-.001C38.47 336.369 0 359.487 0 390.785c0 20.94 24.102 44.42 45.596 44.42 23.223 0 27.808-39.336 49.264-47.993 95.492-38.534 214.91-39.283 310.08 0 21.293 8.788 25.136 48.19 48.258 48.553 21.491.338 45.978-22.761 46.325-43.698.519-31.396-37.586-55.424-67.264-67.674zM67.74 179.033c111.754 46.126 251.978 45.249 364.11.001C461.53 167.057 500 143.94 500 112.642c0-20.94-24.102-44.42-45.596-44.42-23.223 0-27.808 39.335-49.264 47.993-95.492 38.533-214.91 39.282-310.08 0-21.293-8.789-25.136-48.19-48.258-48.554C25.311 67.323.824 90.422.477 111.359c-.519 31.396 37.586 55.424 67.264 67.674z" style="line-height:normal;font-variant-ligatures:normal;font-variant-position:normal;font-variant-caps:normal;font-variant-numeric:normal;font-variant-alternates:normal;font-feature-settings:normal;text-indent:0;text-align:start;text-decoration-line:none;text-decoration-style:solid;text-decoration-color:#000;text-transform:none;text-orientation:mixed;white-space:normal;shape-padding:0;isolation:auto;mix-blend-mode:normal;solid-color:#000;solid-opacity:1" overflow="visible"/></g></svg>