<svg xmlns="http://www.w3.org/2000/svg" version="1.0" width="500" height="500"><g stroke-width="1.137" color="#000" font-weight="400" font-family="sans-serif" fill="#666"><path d="M404.038 184.176c-95.493 39.38-179.116 125.669-218.541 222.628-10.436 25.665-19.283 63.696 0 83.34 12.901 13.142 41.833 13.142 54.734 0 13.939-14.2-7.543-41.691 0-60.244 33.575-82.572 104.789-156.058 186.112-189.593 18.195-7.503 44.777 14.876 58.879.967 13.107-12.929 13.573-42.399.882-55.75-19.032-20.023-56.706-11.805-82.066-1.348zM95.695 315.824c95.493-39.38 179.117-125.669 218.541-222.628 10.436-25.665 19.283-63.696 0-83.34-12.9-13.142-41.833-13.142-54.734 0-13.939 14.2 7.543 41.691 0 60.244-33.574 82.572-104.788 156.058-186.112 189.593-18.195 7.503-44.777-14.876-58.879-.967-13.107 12.929-13.573 42.399-.882 55.75 19.032 20.023 56.706 11.805 82.066 1.348z" style="line-height:normal;font-variant-ligatures:normal;font-variant-position:normal;font-variant-caps:normal;font-variant-numeric:normal;font-variant-alternates:normal;font-feature-settings:normal;text-indent:0;text-align:start;text-decoration-line:none;text-decoration-style:solid;text-decoration-color:#000;text-transform:none;text-orientation:mixed;white-space:normal;shape-padding:0;isolation:auto;mix-blend-mode:normal;solid-color:#000;solid-opacity:1" overflow="visible"/></g></svg>