<svg xmlns="http://www.w3.org/2000/svg" version="1.0" width="500" height="500"><g stroke-width="1.126" fill="#39ac3f" stroke="#39ac3f" stroke-miterlimit="3.275"><path d="M12.481 250.264l495.93 97.847" stroke-width="22.513" stroke-linecap="round" transform="matrix(.94424 0 0 .96087 5.04 -15.684)"/><path d="M264.682 294L212.39 403.839h104.587z" fill-rule="evenodd" stroke-width="22.513" transform="matrix(.94424 0 0 .96087 5.04 -15.684)"/><g stroke-width="9.461"><path d="M338.54 463.222c-8.953 1.667-20.958 48.627-20.958 48.627l34.614-4.787s-4.33 15.512-8.185 27.018c-2.404 7.176 5.607 9.49 9.64 1.529 7.45-14.706 13.052-30.96 13.052-30.96s-18.71-43.188-28.164-41.427z" fill-rule="evenodd" transform="matrix(2.01663 .8689 -.79472 2.20489 -216.231 -1180.836)"/><path transform="matrix(-3.22743 -1.80745 -1.6447 2.70045 1769.705 -605.717)" d="M286.865 449.505c.004 5.131-3.71 9.293-8.294 9.293-4.582 0-8.296-4.162-8.293-9.293-.004-5.131 3.71-9.293 8.293-9.293 4.583 0 8.297 4.162 8.294 9.293z" stroke-width="6.272"/></g><g stroke-width="9.461"><path d="M338.54 463.222c-8.953 1.667-20.958 48.627-20.958 48.627l34.614-4.787s-4.33 15.512-8.185 27.018c-2.404 7.176 5.607 9.49 9.64 1.529 7.45-14.706 13.052-30.96 13.052-30.96s-18.71-43.188-28.164-41.427z" fill-rule="evenodd" transform="matrix(-2.17888 -.22268 -.342 2.32267 1354.981 -798.812)"/><path transform="matrix(3.68357 -.00934 .17015 3.17264 -658.49 -1264.261)" d="M286.865 449.505c.004 5.131-3.71 9.293-8.294 9.293-4.582 0-8.296-4.162-8.293-9.293-.004-5.131 3.71-9.293 8.293-9.293 4.583 0 8.297 4.162 8.294 9.293z" stroke-width="6.272"/></g></g></svg>