<svg xmlns="http://www.w3.org/2000/svg" version="1.0" width="500" height="500"><g transform="translate(0 -80)"><circle cx="250" cy="330" r="240" fill="#00f" fill-opacity=".941" stroke="#fff" stroke-width="20" stroke-linejoin="round"/><g stroke-width="1.134" clip-rule="evenodd" fill="#fff" fill-rule="evenodd"><path d="M435.38 342.052c-3.194.975-7.318.788-12.727-.368-5.498-1.252-10.51-7.085-19.643-6.763-9.357.325-22.571 8.706-35.34 8.706-12.95-.275-27.493-9.076-40.707-9.076-13.17.093-25.142 9.214-37.778 9.493-12.86.045-25.674-8.52-38.267-8.704-12.77-.324-24.875 7.595-36.804 7.5-11.75-.23-22.17-8.66-33.833-8.29-11.972.466-25.097 9.726-36.803 10.281-11.795.186-22.482-8.611-32.902-8.705-10.508-.185-22.303 6.436-29.398 7.919-7.095 1.344-11.574 1.483-13.258.417v24.543c1.684 1.064 6.163.926 13.258-.418 7.095-1.482 18.89-8.103 29.398-7.919 10.421.094 21.107 8.891 32.902 8.704 11.706-.46 24.831-9.955 36.803-10.28 11.662-.462 22.082 8.15 33.833 8.336 11.929.094 24.034-7.778 36.804-7.546 12.593.183 25.408 8.749 38.267 8.704 12.636-.278 24.609-9.401 37.778-9.493 13.214-.045 27.758 8.891 40.707 9.125 12.769 0 25.984-8.385 35.34-8.707 9.134-.418 14.145 5.51 19.643 6.714 5.41 1.157 9.533 1.342 12.726.37z"/><path d="M225.244 328.997l101.452-54.132c-7.98-17.504-13.612-30.7-16.893-40.1-3.371-9.355-4.79-11.438-2.883-15.884 1.951-4.584-.754-5.278 14.101-11.344 14.853-6.298 59.284-24.357 73.783-25.237 14.19-.74 13.614 14.91 11.264 20.19-2.573 5.14-15.787 6.436-25.807 10.512-10.156 3.89-21.33 8.241-34.232 13.058l46.424 102.15c-5.985 5.138-13.923 7.132-24.653 6.343-10.908-1.063-25.453-11.435-39.02-11.484-13.525.049-28.956 11.624-41.326 11.854-12.416-.047-22.26-10.047-32.636-11.064-10.419-1.023-20.218.69-29.574 5.138z"/><path d="M407.517 240.604c15.641 0 28.333 13.255 28.333 29.588 0 16.334-12.693 29.589-28.333 29.589-15.64 0-28.334-13.255-28.334-29.589 0-16.333 12.693-29.588 28.334-29.588M156.78 330.987c-12.016-2.224-24.254-5.647-37.556-10.281-13.392-4.906-36.227-11.483-41.637-17.92-5.41-6.621-1.464-19.864 9.445-20.466 10.952-.602 32.68 9.122 55.25 17.18 22.436 7.966 48.11 17.921 78.396 30.377-3.725 2.037-8.647 2.686-14.944 1.759-6.385-1.067-14.455-6.947-22.658-7.131-8.248-.14-16.895 2.083-26.295 6.482zM435.38 383.128c-3.194.878-7.318.74-12.727-.417-5.498-1.203-10.51-7.133-19.643-6.716-9.357.324-22.571 8.705-35.34 8.705-12.95-.277-27.493-9.075-40.707-9.075-13.17.094-25.142 9.216-37.778 9.492-12.86.047-25.674-8.519-38.267-8.705-12.77-.325-24.875 7.594-36.804 7.502-11.75-.231-22.17-8.66-33.833-8.289-11.972.462-25.097 9.723-36.803 10.281-11.795.184-22.482-8.615-32.902-8.707-10.508-.184-22.303 6.437-29.398 7.919-7.095 1.437-11.574 1.389-13.258.37v24.543c1.684 1.018 6.163 1.066 13.258-.371 7.095-1.484 18.89-8.103 29.398-7.919 10.421.092 21.107 8.89 32.902 8.707 11.706-.558 24.831-9.819 36.803-10.281 11.662-.37 22.082 8.058 33.833 8.289 11.929.092 24.034-7.827 36.804-7.502 12.593.186 25.408 8.752 38.267 8.705 12.636-.276 24.609-9.402 37.778-9.492 13.214 0 27.758 8.798 40.707 9.075 12.769 0 25.984-8.381 35.34-8.705 9.134-.325 14.145 5.509 19.643 6.761 5.41 1.158 9.533 1.344 12.726.372zM434.06 423.407c-3.194.878-7.318.74-12.727-.417-5.498-1.203-10.51-7.133-19.643-6.716-9.357.323-22.571 8.705-35.34 8.705-12.95-.277-27.493-9.075-40.706-9.075-13.17.093-25.142 9.215-37.78 9.492-12.858.047-25.673-8.52-38.266-8.705-12.77-.325-24.875 7.594-36.804 7.502-11.75-.231-22.17-8.66-33.832-8.29-11.973.463-25.098 9.724-36.804 10.282-11.795.184-22.482-8.615-32.902-8.707-10.508-.184-22.303 6.436-29.398 7.919-7.095 1.437-11.574 1.389-13.258.37v24.543c1.684 1.018 6.163 1.066 13.258-.371 7.095-1.484 18.89-8.103 29.398-7.92 10.421.093 21.107 8.892 32.902 8.708 11.706-.558 24.831-9.819 36.804-10.281 11.661-.371 22.081 8.058 33.832 8.289 11.929.092 24.034-7.827 36.804-7.502 12.593.186 25.408 8.752 38.267 8.705 12.637-.277 24.609-9.402 37.779-9.492 13.213 0 27.757 8.798 40.706 9.075 12.769 0 25.984-8.382 35.34-8.705 9.134-.325 14.145 5.508 19.643 6.76 5.41 1.159 9.533 1.345 12.726.373z"/></g></g></svg>