<svg xmlns="http://www.w3.org/2000/svg" version="1.0" width="500" height="500"><g transform="translate(0 -80)"><circle cx="250" cy="330" r="240" fill="#00f" fill-opacity=".941" stroke="#fff" stroke-width="20" stroke-linejoin="round"/><g stroke-width="1.197"><path d="M497.475 211.549c0 2.79-1.545 4.035-3.435 2.769L299.469 130.62c-1.89-1.267-5.007-1.331-6.925-.14L87.406 210.948c-1.919 1.19-3.488-.12-3.488-2.91v-22.605c0-2.79 1.57-6.046 3.488-7.237L292.544 97.73c1.918-1.191 5.035-1.127 6.925.14l194.57 83.697c1.89 1.267 3.436 4.587 3.436 7.377z" fill="none" stroke="#fff" stroke-width="41.901" transform="matrix(.8361 0 0 .83452 6.949 90.439)"/><path d="M403.46 420.591c-2.717.828-6.225.67-10.827-.313-4.677-1.062-8.94-6.016-16.71-5.742-7.96.276-19.202 7.392-30.064 7.392-11.016-.233-23.388-7.707-34.63-7.707-11.203.08-21.388 7.824-32.138 8.06-10.939.04-21.84-7.233-32.553-7.39-10.864-.275-21.162 6.45-31.309 6.37-9.996-.196-18.86-7.354-28.782-7.04-10.185.395-21.35 8.258-31.309 8.73-10.033.158-19.125-7.312-27.989-7.392-8.939-.157-18.974 5.465-25.01 6.724-6.035 1.142-9.845 1.26-11.278.354v20.84c1.433.903 5.243.786 11.279-.355 6.035-1.259 16.07-6.881 25.01-6.724 8.864.08 17.955 7.55 27.988 7.39 9.959-.391 21.124-8.452 31.31-8.728 9.92-.393 18.784 6.92 28.781 7.077 10.147.08 20.445-6.603 31.31-6.407 10.712.156 21.613 7.429 32.552 7.391 10.75-.236 20.935-7.983 32.139-8.061 11.24-.038 23.613 7.55 34.629 7.748 10.862 0 22.105-7.12 30.063-7.393 7.77-.355 12.034 4.678 16.71 5.7 4.603.984 8.11 1.14 10.827.315z" clip-rule="evenodd" fill="#fff" fill-rule="evenodd"/><path d="M224.697 409.505l86.305-45.963c-6.788-14.863-11.58-26.067-14.37-34.049-2.869-7.943-4.075-9.712-2.453-13.486 1.66-3.893-.641-4.482 11.996-9.633 12.635-5.347 50.432-20.681 62.767-21.428 12.071-.629 11.581 12.66 9.582 17.143-2.189 4.364-13.43 5.465-21.954 8.925-8.64 3.303-18.145 6.998-29.121 11.088l39.493 86.735c-5.092 4.364-11.845 6.056-20.973 5.386-9.28-.902-21.652-9.71-33.194-9.751-11.505.042-24.632 9.87-35.156 10.066-10.562-.04-18.936-8.532-27.763-9.395-8.863-.868-17.2.586-25.16 4.362z" clip-rule="evenodd" fill="#fff" fill-rule="evenodd"/><path d="M379.757 334.451c13.306 0 24.103 11.255 24.103 25.124 0 13.869-10.798 25.123-24.103 25.123-13.305 0-24.104-11.254-24.104-25.123 0-13.869 10.798-25.124 24.104-25.124M166.455 411.195c-10.222-1.888-20.633-4.794-31.95-8.73-11.391-4.165-30.818-9.75-35.42-15.215-4.602-5.622-1.245-16.867 8.035-17.378 9.317-.511 27.8 7.746 47 14.588 19.087 6.764 40.928 15.217 66.692 25.793-3.168 1.73-7.355 2.28-12.712 1.493-5.432-.905-12.297-5.898-19.276-6.054-7.016-.12-14.372 1.769-22.369 5.503zM403.46 455.468c-2.717.746-6.225.63-10.827-.354-4.677-1.021-8.94-6.056-16.71-5.702-7.96.275-19.202 7.391-30.064 7.391-11.016-.235-23.388-7.705-34.63-7.705-11.203.079-21.388 7.825-32.138 8.06-10.939.04-21.84-7.234-32.553-7.392-10.864-.276-21.162 6.448-31.309 6.37-9.996-.197-18.86-7.353-28.782-7.038-10.185.392-21.35 8.256-31.309 8.73-10.033.155-19.125-7.315-27.989-7.394-8.939-.156-18.974 5.465-25.01 6.724-6.035 1.22-9.845 1.18-11.278.315v20.839c1.433.864 5.243.905 11.279-.315 6.035-1.26 16.07-6.88 25.01-6.724 8.864.078 17.955 7.549 27.988 7.393 9.959-.474 21.124-8.337 31.31-8.73 9.92-.315 18.784 6.842 28.781 7.038 10.147.079 20.445-6.645 31.31-6.37 10.712.158 21.613 7.432 32.552 7.392 10.75-.235 20.935-7.983 32.139-8.06 11.24 0 23.613 7.471 34.629 7.706 10.862 0 22.105-7.117 30.063-7.392 7.77-.275 12.034 4.678 16.71 5.741 4.603.983 8.11 1.141 10.827.316z" clip-rule="evenodd" fill="#fff" fill-rule="evenodd"/></g></g></svg>