<svg xmlns="http://www.w3.org/2000/svg" version="1.0" width="500" height="500"><circle cx="250" cy="250" r="240" fill="#7e5a20" stroke="#fff" stroke-width="20"/><path style="line-height:125%;-inkscape-font-specification:NPSPICT3;text-align:start" d="M104.31 162.077l87.923 88.35-87.923 87.924zm273.53-16.566l-108.3 107.885c-5.383 5.384-12.18 8.076-20.389 8.076-8.495 0-15.577-2.835-21.245-8.504L120.448 145.511zm16.994 192.84l-87.923-87.923 87.923-88.351zM120.02 354.917l88.352-87.923 3.823 3.823c10.197 9.912 22.516 14.868 36.956 14.868 14.44 0 26.616-4.956 36.528-14.868l3.824-3.823 88.338 87.923zm-39.496 23.786h338.952V121.297H80.524z" font-weight="400" font-size="40" font-family="NPSPICT3" fill="#fff"/></svg>