<svg xmlns="http://www.w3.org/2000/svg" version="1.0" width="500" height="500"><g transform="translate(0 -80)"><circle cx="246.818" cy="330.064" r="240" fill="#bbb" stroke="#fff" stroke-width="20" stroke-linejoin="round"/><g transform="matrix(26.83666 0 0 25.77209 -21.549 72.343)" stroke-width="0"><path d="M12.067 14.58l-5-8.66.866-.5 5 8.66z"/><path d="M5 9.5h10v1H5z"/><path d="M3.254 13.317l12.99-7.5.5.866-12.99 7.5z"/><path d="M7.067 14.08l5-8.66.866.5-5 8.66z"/><path d="M9.5 17.5v-15h1v15z"/><path d="M16.245 14.183l-12.99-7.5.5-.866 12.99 7.5z"/><circle r="2.999" cy="9.935" cx="9.993" transform="translate(.007 .064)" fill="#fff" stroke="#000" stroke-width=".76"/></g></g></svg>