<svg xmlns="http://www.w3.org/2000/svg" version="1.0" width="500" height="500"><path style="line-height:125%;-inkscape-font-specification:NPSPICT3;text-align:start" d="M180.351 303.687l-59.894-106.73H0l48.965 28.989L18.694 279.3c-2.582 4.839-3.873 9.891-3.873 15.158 0 5.268 1.29 10.32 3.873 15.159l47.648 84.978c2.149-6.152 4.298-11.425 6.447-15.822l59.265-104.077zm-89.517 85.642c-3.447 5.71-5.17 11.854-5.17 18.435 0 10.106 3.545 18.67 10.635 25.693 7.089 7.023 15.568 10.534 25.436 10.534h118.53v-98.146H115.307c-.865 1.755-4.089 7.465-9.671 17.128zm160.38-243.094h119.808l60.543-106.711-48.945 28.99-30.292-53.376C346.745 5.046 338.162 0 326.578 0h-95.335c3.865 4.383 7.089 8.772 9.67 13.168l58.598 104.077-9.652 5.93zM192.597 5.267c-13.747 0-24.053 6.146-30.92 18.435l-59.894 105.404c22.75 13.617 50.446 29.868 83.09 48.752 19.315-33.814 40.138-70.705 62.468-110.671l-23.824-43.485c-6.867-12.29-17.173-18.434-30.92-18.435zm153.952 339.25v-57.295l-59.914 106.71L346.55 500v-57.316h59.895c11.597 0 20.396-5.052 26.399-15.158l47.667-84.978c-6.435 1.755-11.8 2.633-16.099 2.633zm88.888-180.49c-2.15 1.313-29.852 17.564-83.109 48.75 26.628 46.99 47.674 84.102 63.138 111.335h48.297c14.178 0 24.701-6.151 31.569-18.455 6.433-11.86 6.217-23.936-.65-36.227z" font-weight="400" font-size="40" font-family="NPSPICT3" fill="#39ac3f"/></svg>