<svg xmlns="http://www.w3.org/2000/svg" version="1.0" width="500" height="500"><g transform="translate(0 -80)"><circle cx="250" cy="330" r="240" fill="none" stroke="#000" stroke-width="20" stroke-linejoin="round"/><path d="M168.645 501.283c-1.716-3.2-2.473-26.098-2.208-66.802.343-52.882 1.586-56.03-1.734-62.44-5.104-9.855-6.822-20.482 1.574-23.404 6.775-2.358 5.462-3.275 5.462-15.062v-12.55l-21.693-.553c-12.895-.304-24.195-1.303-25.112-2.22-2.197-2.2-3.193-25.313-1.227-28.49.94-1.518 8.48-2.033 19.481-1.328 15.067.966 18.853.427 23.593-3.356 9.598-7.66 6.023-12.267-10.858-13.99-32.443-3.31-32.308-3.262-34.006-12.296-.85-4.528-2.603-8.232-3.894-8.232-1.29 0-6.677-2.861-11.969-6.358-7.496-4.953-10.207-8.677-12.27-16.857-1.456-5.775-5.797-14.84-9.647-20.147-3.85-5.305-6.357-10.684-5.571-11.953 2.173-3.511 12.534-2.757 20.808 1.516 9.198 4.748 28.368 10.515 38.687 11.637 4.277.465 20.22 2.697 35.43 4.959 22.81 3.393 39.235 3.908 93.78 2.94 36.371-.647 70.998-2.337 76.95-3.757 5.951-1.42 17.712-3.669 26.136-4.997 8.423-1.328 22.111-5.59 30.417-9.471 20.178-9.428 26.332-4.081 15.577 13.531-2.64 4.324-9.58 14.375-9.58 17.476 0 5.542-13.936 21.48-19.144 21.48-1.315 0-3.292 3.478-4.395 7.727-2.209 8.51-7.121 10.842-23.682 11.242-14.716.355-24.948 2.866-24.948 6.123 0 1.585 2.488 5.216 5.528 8.068 5.083 4.768 6.875 5.019 22.243 3.119 10.273-1.27 17.821-1.186 19.586.217 2.893 2.302 1.786 25.251-1.391 28.823-.83.932-12.104 1.873-25.055 2.091l-21.795.398.717 12.314c.672 11.536-.542 12.472 6.782 14.836 20.303 7.55 12.29 11.077-.141 23.058l1.387 61.666c.86 38.214.498 65.002-.952 67.588-2.883 5.145-24.115 5.909-28.184 1.014-1.656-1.992-1.465-28.355-2.476-68.374-.288-37.162-2.7-74.32-2.696-111.484l-54.69.783c-30.08.431-55.52.968-55.522 1.613l-.386 113.093c-.162 47.316-.532 61.667-1.727 63.978-3.243 6.274-23.721 5.795-27.185-.668zm69.771-219.512v-9.603h-17.915c-14.168 0-18.381.83-20.142 3.972-1.672 2.982-.653 5.357 4.089 9.528 5.006 4.404 9.18 5.571 20.141 5.631l13.827.076zm62.493 3.068c2.66-2.274 4.837-6.055 4.837-8.403 0-3.71-2.354-4.268-18.035-4.268h-18.034v16.806h13.198c9.013 0 14.731-1.311 18.034-4.135z"/></g></svg>