<svg xmlns="http://www.w3.org/2000/svg" version="1.0" width="500" height="500"><g transform="translate(0 -80)"><circle cx="250" cy="330" r="240" fill="none" stroke="#000" stroke-width="20" stroke-linejoin="round"/><path d="M188.78 513.41c-21.898-5.705-40.828-17.126-58.628-35.373-28.352-29.064-43.838-60.168-53.009-106.471-5.23-26.41-5.239-27.052-.422-30.569 9.867-7.203 13.767-4.607 17.077 11.367 17.25 83.253 71.286 137.374 123.854 124.047 15.679-3.974 30.636-19.002 35.135-35.3 5.801-21.015-4.419-57.33-22.185-78.825l-6.313-7.64-10.673 10.98c-11.286 11.613-25.196 21.183-30.808 21.2-3.375.01-18.782-31.106-18.782-37.93 0-1.999 7.328-6.98 16.285-11.068 25.136-11.474 35.828-24.397 35.828-43.306 0-12.305-2.173-16.596-10.61-20.952-10.862-5.609-28.949-4.65-50.87 2.698-10.673 3.577-20.016 6.504-20.762 6.504-1.921 0-16.773-33.559-16.773-37.9 0-7.445 16.108-12.534 42.993-13.582 24.659-.962 26.823-.614 40.34 6.482 16.988 8.919 29.618 24.36 35.158 42.985 4.518 15.19 5.168 34.965 1.469 44.68-3.94 10.346 1.07 10.426 14.447.231 14.616-11.139 24.503-15.504 40.56-17.908 11.578-1.734 12.15-2.238 15.313-13.52 7.55-26.925 27.55-42.82 54.357-43.199 20.012-.283 31.262 3.825 42.81 15.632 15.243 15.587 20.702 34.402 22.032 75.935 1.65 51.554-5.284 79.42-25.48 102.385-17.407 19.796-44.791 27.112-66.157 17.676-18.03-7.964-22.787-20.32-24.856-64.577-1.33-28.43-2.437-35.192-6.5-39.674-6.287-6.936-10.148-6.776-27.146 1.125l-13.936 6.478 5.592 8.456c36.332 54.936 28.808 114.756-16.975 134.977-14.419 6.368-45.533 8.342-62.365 3.956zm188.312-92.758c18.785-11.435 31.223-43.578 28.494-73.63-1.784-19.644-13.237-42.799-25.025-50.592-15.958-10.55-37.879-7.078-52.248 8.278l-6.383 6.822 5.008 8.385c4.168 6.977 5.148 14.5 5.836 44.807.966 42.553 1.363 45.064 8.569 54.21 6.868 8.719 22.98 9.494 35.749 1.72zm-129.671-176.04c-6.441-2.25-16.597-7.447-22.567-11.549-11.922-8.19-34.772-32.997-34.772-37.751 0-1.649 3.002-4.961 6.67-7.361 6.53-4.272 6.893-4.163 17.225 5.157 13.691 12.35 26.309 17.495 42.988 17.533 14.945.033 32.942-8.615 42.088-20.224 2.819-3.578 6.003-6.506 7.075-6.506 2.074 0 29.796 22.774 33.181 27.259 3.264 4.323-23.766 26.855-39.077 32.575-16.559 6.186-36.64 6.515-52.811.867zm.916-58.184c-6.96-7.318-12.983-14.199-13.382-15.29-.4-1.091 5.277-7.591 12.615-14.444l13.341-12.46 13.878 13.683c7.632 7.526 13.248 14.99 12.48 16.587-.768 1.597-6.994 7.927-13.836 14.066l-12.44 11.164z"/></g></svg>