<svg xmlns="http://www.w3.org/2000/svg" version="1.0" width="500" height="500"><g transform="translate(0 -80)"><circle cx="250" cy="330" r="240" fill="none" stroke="#000" stroke-width="20" stroke-linejoin="round"/><g stroke-width="1.142"><path d="M218.043 500.933c-6.34-1.26-18.663-4.793-27.382-7.853-44.688-15.681-87.84-59.844-103.943-106.375-5.618-16.233-9.242-33.909-9.028-57.71.208-23.82 3.41-39.1 9.028-55.334 15.352-44.36 54.182-86.06 97-104.168 15.556-6.579 50.111-12.977 70.085-12.977 29.77 0 86.138 18.792 97.55 32.522 5.834 7.019.407 7.257-28.343 1.242-23.008-4.813-30.64-5.257-48.43-2.816-51.225 7.026-97.306 45.57-115.723 96.79-8.687 24.164-8.72 67.617-.07 91.626 17.91 49.706 63.278 88.576 113.385 97.145 15.55 2.66 22.681 2.232 48.2-2.888 16.473-3.305 31.02-4.981 32.328-3.724 3.046 2.927-10.653 12.66-30.74 21.841-29.658 13.557-72.91 18.834-103.917 12.679zm95.153-114.372c-.872-1.41 1.626-11.99 5.552-23.514 3.925-11.524 7.137-21.306 7.137-21.74 0-.432-8.41-6.778-18.688-14.101-10.278-7.323-18.687-14.44-18.687-15.817 0-1.376 10.673-2.878 23.719-3.336l23.719-.834 7.473-21.385c4.111-11.762 8.835-21.838 10.497-22.391 1.663-.553 6.492 9.393 10.731 22.103l7.708 23.108H396.8c13.48 0 24.01 1.173 23.482 2.615-.527 1.437-9.044 8.54-18.927 15.782-9.883 7.242-17.969 14.26-17.969 15.594 0 1.335 2.588 9.937 5.75 19.114 5.538 16.07 7.312 27.27 4.32 27.27-.785 0-9.337-5.813-19.003-12.917-9.666-7.105-18.781-12.918-20.256-12.918-1.475 0-9.418 4.928-17.652 10.951-19.908 14.562-21.496 15.407-23.348 12.416z"/><path d="M353.45 261.249c-6.13 4.406-7.31 13.041-10.547 19.491-2.946 8.06-5.68 16.212-8.556 24.304-15.505 1.319-31.932-.715-46.832 4.114-3.762 4.433 3.905 7.9 6.426 10.774 9.496 7.778 19.84 14.39 29.44 22.072-4.084 14.871-11.615 29.267-12.468 44.771 2.563 6.88 10.394 1.243 13.98-1.474 9.793-6.455 18.951-14.918 29.5-19.726 13.486 7.2 24.947 18.172 38.414 25.593 6.017.173 4.274-8.3 3.562-12.134-2.222-12.337-8.399-24.35-10.407-36.368 11.066-11.368 25.765-18.504 36.32-30.37.677-5.955-8.08-4.516-11.874-5.44-12.136-.777-24.307-.275-36.459-.418-5.756-14.82-8.384-31.466-17.81-44.422-.737-.59-1.706-1.047-2.69-.767z"/></g></g></svg>