<svg xmlns="http://www.w3.org/2000/svg" version="1.0" width="500" height="500"><g transform="translate(0 -80)"><circle cx="250" cy="330" r="240" fill="none" stroke="#000" stroke-width="20" stroke-linejoin="round"/><path d="M233.288 523.354c-3.634-3.628-5.544-9.226-5.544-16.247v-10.711l-16.084-3.16c-62.413-12.26-117.613-76.854-131.007-143.785-4.086-.315-6.345-.473-10.662-.473-13.502 0-22.44-8.996-22.44-22.585 0-12.351 7.604-19.577 21.481-20.411l10.4-.626 4.907-19.015c8.188-31.725 20.346-52.596 44.96-77.18 25.228-25.198 46.343-37.851 76.826-45.392 9.262-2.29 9.973-.524 20.4-2.846 1.377-14.46.122-30.587 22.264-29.829 17.502.61 19.173 11.28 19.245 28.984 6.002.587 7.95.764 18.34 2.897 62.472 12.826 118.572 69.098 129.519 132.029 1.732 9.96 2.662 10.985 9.263 10.207 8.714-1.026 22.988 5.747 25.414 12.06 6.01 15.636-2.8 29.072-20.63 31.462-11.673 1.565-12.227 2.071-14.072 12.874-2.89 16.92-14.228 42.83-26.887 61.443-22.312 32.804-57.094 57.215-97.477 68.409l-20.791 5.763-.898 10.99c-.494 6.045-2.87 13.17-5.28 15.834-6.17 6.818-24.124 6.42-31.247-.692zm-5.544-106.563c0-19.03-.963-34.599-2.14-34.599-1.178 0-12.681 10.579-25.563 23.508-12.965 13.013-20.287 21.003-23.008 24.925 3.355 2.452 9.243 9.062 23.979 15.11 12.347 5.069 22.524 6.52 27.181 7.222-.77-5.783-.45-14.456-.45-36.166zm83.253 22.444l12.066-7.427L298.332 407c-13.602-13.644-25.693-24.808-26.868-24.808-1.176 0-2.137 15.725-2.137 34.945v34.944l14.801-2.71c4.956-.987 17.046-5.549 26.869-10.136zm-138.718-66.038l25.688-24.22h-73.412l1.88 10.003c2.15 11.442 15.654 40.25 18.358 39.16.99-.398 13.358-11.623 27.486-24.943zm193.604 6.477c4.339-9.514 6.224-17.376 7.171-21.563l1.722-9.133h-73.453l24.834 24.91c13.659 13.702 25.861 24.912 27.117 24.912 1.255 0 8.27-9.611 12.61-19.126zm-106.955-27.366c4.767-2.461 12.593-10.666 14.902-16.183 3.68-8.793 1.428-18.1-5.484-25.666-11.022-12.066-25.34-12.138-37.57-.633-11.935 11.228-9.013 26.82-2.237 34.737 7.772 9.08 20.348 12.93 30.389 7.745zm-64.45-47.674c0-.793-11.056-12.428-24.567-25.857l-24.567-24.414-5.913 9.553c-6.643 10.732-10.905 22.326-14.563 42.23 1.829.256 4.824-.07 34.957-.07 19.059 0 34.652-.65 34.652-1.442zm178.03-6.012c-.448-3.641-2.593-14.79-7.076-24.77-4.53-10.084-11.4-18.982-12.602-18.982-2.004 0-50.237 47.778-50.237 49.764 0 .793 15.905 1.182 35.345.866 35.014-.57 35.34-.635 34.57-6.878zM227.745 238.21v-36.035l-7.624 1.719c-13.893.607-42.95 16.644-42.276 19.637.424 1.879 47.283 50.714 49.149 50.714.413 0 .75-16.216.75-36.035zm75.959-26.732c-10.353-4.853-22.248-6.473-26.06-6.949l-6.93-.865-.77 35.982-.77 35.983 26.524-26.295 26.525-26.295z"/></g></svg>