<svg xmlns="http://www.w3.org/2000/svg" version="1.0" width="500" height="500"><g transform="translate(0 -80)" stroke="#fff"><circle cx="250" cy="330" r="240" fill="#39ac3f" fill-opacity=".941" stroke-width="20" stroke-linejoin="round"/><g stroke-width="6.913" font-weight="400" font-family="Arial Rounded MT Bold" letter-spacing="0" word-spacing="0" text-anchor="middle" fill="#fff"><path d="M187.57 393.86l-7.752-27.213h-66.006l-7.753 27.805c-3.027 10.847-5.611 18.192-7.752 22.038-2.141 3.747-5.648 5.62-10.521 5.62-4.135 0-7.79-2.021-10.965-6.064-3.174-4.042-4.762-8.627-4.762-13.755 0-2.958.37-6.014 1.108-9.17.738-3.155 1.956-7.543 3.654-13.163l41.531-140.803c1.182-4.043 2.584-8.875 4.209-14.495 1.698-5.719 3.47-10.452 5.316-14.199 1.92-3.746 4.393-6.754 7.42-9.022 3.1-2.366 6.903-3.55 11.407-3.55 4.578 0 8.38 1.184 11.407 3.55 3.101 2.268 5.575 5.226 7.42 8.875 1.92 3.648 3.507 7.592 4.763 11.832 1.329 4.141 2.99 9.712 4.983 16.713l42.417 139.916c3.323 10.649 4.984 18.389 4.984 23.22 0 5.03-1.588 9.663-4.762 13.903-3.101 4.142-6.867 6.212-11.297 6.212-2.584 0-4.799-.64-6.645-1.922-1.846-1.184-3.396-2.81-4.651-4.881-1.255-2.17-2.621-5.423-4.098-9.762a1744.392 1744.392 0 01-3.655-11.684zm-65.12-60.196h48.508l-24.475-89.48zM292.716 329.95H243.1c-7.162 0-12.293-2.12-15.394-6.36-3.027-4.339-4.54-11.191-4.54-20.559V140.043c0-9.565 1.55-16.417 4.65-20.559 3.176-4.24 8.27-6.36 15.284-6.36h52.606c7.752 0 14.471.641 20.156 1.923 5.685 1.282 10.78 3.747 15.284 7.395 3.839 3.057 7.235 6.952 10.189 11.685 2.953 4.634 5.205 9.81 6.755 15.53 1.55 5.62 2.326 11.585 2.326 17.896 0 21.692-8.122 37.567-24.365 47.624 21.338 9.072 32.007 26.721 32.007 52.95 0 12.127-2.326 23.072-6.978 32.834-4.651 9.663-10.927 16.811-18.827 21.446-4.947 2.76-10.632 4.733-17.055 5.916-6.424 1.084-13.918 1.627-22.482 1.627zm-2.437-96.285h-34.221v63.303h35.329c22.223 0 33.335-10.699 33.335-32.095 0-10.945-2.88-18.883-8.638-23.813-5.76-4.93-14.383-8.108-25.805-7.395zm-34.221-87.558v56.055h30.124c8.195 0 14.508-1.035 18.938-3.106 4.503-2.07 7.937-6.015 10.3-11.832 1.845-4.142 2.768-8.776 2.768-13.903 0-10.945-2.916-18.192-8.75-21.742-5.832-3.648-14.767-6.427-26.69-5.472zM518.23 349.934c0 6.902-1.293 14.396-3.877 22.48-2.51 7.988-6.497 15.876-11.961 23.665-5.464 7.691-12.44 13.953-20.932 18.784-8.49 4.831-18.384 7.247-29.68 7.247-8.565 0-16.354-1.084-23.368-3.254a58.768 58.768 0 01-19.16-10.057c-5.685-4.634-10.927-10.698-15.726-18.192-4.283-6.804-7.937-14.396-10.964-22.777-3.028-8.48-5.316-17.502-6.867-27.066-1.476-9.565-2.215-19.72-2.215-30.468 0-17.453 1.883-33.081 5.648-46.885 3.84-13.805 9.303-25.588 16.391-35.35 7.088-9.86 15.394-17.353 24.919-22.48 9.524-5.128 19.676-7.691 30.456-7.691 13.142 0 24.844 3.5 35.107 10.5 10.263 7.002 18.126 15.679 23.59 26.032 5.463 10.254 8.195 19.967 8.195 29.137 0 5.028-1.329 9.465-3.987 13.31-2.658 3.846-5.87 5.769-9.635 5.769-4.208 0-7.383-1.331-9.524-3.993-2.068-2.663-4.394-7.248-6.978-13.755-4.282-10.748-9.34-18.784-15.172-24.108-5.76-5.325-12.884-7.987-21.375-7.987-13.511 0-24.29 6.853-32.338 20.558-7.974 13.706-11.961 33.18-11.961 58.422 0 16.86 1.772 30.912 5.316 42.152 3.544 11.142 8.564 19.474 15.061 24.996 6.498 5.521 14.103 8.282 22.815 8.282 9.45 0 17.424-3.106 23.922-9.318 6.57-6.31 11.517-15.53 14.84-27.657 1.403-5.72 3.138-10.354 5.205-13.903 2.067-3.649 5.39-5.473 9.967-5.473 3.914 0 7.273 1.824 10.079 5.473 2.805 3.648 4.208 8.184 4.208 13.607z" style="line-height:1.25;-inkscape-font-specification:'Arial Rounded MT Bold, Normal';font-variant-ligatures:normal;font-variant-caps:normal;font-variant-numeric:normal;font-feature-settings:normal;text-align:center" transform="matrix(.8645 0 0 .87141 -.705 77.29)"/></g></g></svg>