<svg xmlns="http://www.w3.org/2000/svg" version="1.0" width="500" height="500"><g transform="translate(0 -80)"><circle cx="250" cy="330" r="240" fill="#7e5a20" stroke="#fff" stroke-width="20" stroke-linejoin="round"/><g stroke-width="1.152"><path d="M265.094 130.969c-9.667.02-20.428 7.755-27.281 14.219-29.304 22.5-50.746 38.617-99.72 51.812-18.605 5.62-56.493-1.22-93.655-3.844-23.728-3.698-3.392 38.675-.22 55.906 21.099 66.075 45.376 132.953 88.25 188.344 24.452 27.213 58.27 50.933 96.188 50.5 31.334-2.612 57.196-27.773 64.531-57.75.634-2.023 1.22-4.072 1.75-6.125a359.4 359.4 0 002.407-9.437c-4.625-7.21-8.117-15.165-10.156-23.5-.634-2.024-1.188-4.073-1.72-6.125-17.043-63.708-15.993-130.754-8.593-195.781 2.155-10.437 4.771-20.769 7.594-31.032a1591.176 1591.176 0 01-5.781-19.594c-3.763-5.524-8.53-7.604-13.594-7.593z" fill="none" stroke="#fff" stroke-width="23.043" transform="matrix(.77676 0 0 .78297 17.188 121.08)"/><path d="M313.844 100c-7.759 1.993-6.652 12.105-9.219 18-11.446 36.59-22.944 73.821-23.406 112.5-3.52 58.108-1.266 118.133 18.969 173.094 11.942 24.792 40.554 42.695 68.312 35.687 39.139-8.07 70.337-37.517 90.656-70.844 38.094-59.52 59.597-127.402 79.094-194.812.373-3.585 1.837-9.1-.344-11.688-18.789 1.303-37.709 3.785-56.593 5.438-20.58 1.957-41.637.033-60.907-7.5-34.387-11.39-64.68-31.9-92.25-55.031-4.214-2.82-9.15-5.033-14.312-4.844zm61.5 91.313c16.305-.523 23.754 22.783 12.656 33.437-14.95 16.114-38.415 26.936-60.5 21.219-13.563-4.876-21.234-24.427-10.906-35.875 16.267-14.13 39.63-11.74 58.75-18.781zm65.969 14.5c17.117-.51 29.59 15.67 31.812 31.343 4.47 10.789 12.379 22.917 6.781 34.813-4.108 8.96-15.75 10.61-24.156 7.312-20.11-4.671-33.51-24.573-33.906-44.781-1.828-11.592 3.618-26.458 16.5-28.375a17.3 17.3 0 012.969-.313zm-66.407 105.562c21.126.345 40.436 13.225 52.813 29.656 7.865 13.494 4.118 35.138-11.844 40.656-10.963 2.417-18.216-8.086-26.938-12.593-13.965-8.944-31.804-9.06-47.062-3.719-7.507 2.352-17.68.643-20.531-7.625-4.879-11.503 2.072-24.816 12.125-30.938 11.85-9.138 26.316-15.388 41.437-15.437z" fill="#fff" fill-rule="evenodd" stroke="#fff" stroke-width="23.043" transform="matrix(.77676 0 0 .78297 17.188 121.08)"/><path d="M285.454 384.979C268.41 321.27 269.49 254.2 276.89 189.173c6.28-30.407 16.278-59.851 24.827-89.655 10.945-16.07 30.41-3.24 40.855 6.61 29.303 22.5 50.76 38.633 99.733 51.828 18.607 5.62 56.48-1.233 93.643-3.857 23.727-3.698 3.414 38.68.24 55.91-21.097 66.075-45.402 132.934-88.277 188.326-24.452 27.212-58.254 50.952-96.172 50.52-31.334-2.614-57.203-27.784-64.538-57.76a126.282 126.282 0 01-1.746-6.116z" fill="none" stroke="#fff" stroke-width="23.043" transform="matrix(.77676 0 0 .78297 17.188 121.08)"/><path d="M161.761 449.363c-12.108-1.696-23.674-8.933-29.496-19.928 6.448-7.221 15.655.094 23.183.784 17.558 2.237 33.967-9.4 42.52-24.177 5.544-5.357 6.267-19.965 15.91-17.823 6.955 3.88 5.644 12.807 3.945 19.292-1.1 8.648-5.269 16.423-10.78 23.015-4.341 5.862-8.652 12.569-16.161 14.51-9.603 1.8-19.158 6.375-29.121 4.327zm-42.899-94.617c-9.255-5.507-20.412-8.894-26.973-18.035-1.463-10.4 11.553-17.182 20.211-13.12 10.197 3.215 19.839 9.1 26.291 17.818 4.283 7.843-3.151 20.228-12.4 16.188-2.453-.747-4.74-1.936-7.129-2.851zm59.032-19.255c-6.473-8.57-6.534-23.487 3.526-29.366 6.607-4.4 16.089-7.424 23.112-2.23 3.686 7.656-2.806 14.675-5.736 21.3-1.77 6.691-6.122 14.205-13.708 14.872-3.054.076-5.766-1.969-7.194-4.576z" fill="#fff"/></g></g></svg>