<svg xmlns="http://www.w3.org/2000/svg" version="1.0" width="500" height="500"><g transform="translate(0 -80)"><circle cx="250" cy="330" r="240" fill="#f0f000" stroke="#fff" stroke-width="20" stroke-linejoin="round"/><path d="M393.671 184.77c-10.448-4.03-22.164 1.24-26.164 11.773l-7.9 20.808-112.386-43.358 7.9-20.807c4-10.535-1.229-22.342-11.68-26.374-10.448-4.03-22.164 1.24-26.164 11.774L101.403 443.759c-4 10.534 1.232 22.342 11.68 26.373 10.451 4.032 22.165-1.239 26.164-11.773l7.023-18.495 112.386 43.357-7.023 18.496c-4 10.534 1.232 22.342 11.68 26.373 10.45 4.032 22.164-1.239 26.164-11.773l115.874-305.174c4-10.534-1.229-22.341-11.68-26.373zM203.768 288.433l112.386 43.358-14.046 36.99-112.385-43.357zm141.354-32.936l-14.484 38.147-112.386-43.358 14.485-38.146zm-184.368 146.22l14.485-38.147 112.385 43.358-14.484 38.147z" stroke-width="1.152"/></g></svg>