<svg xmlns="http://www.w3.org/2000/svg" width="500" height="500"><path d="M0 0v52.084c76.822 0 113.763 14.829 115.385 83.333v93.75c0 83.334 57.692 125 96.153 125 0 0-38.461-41.666-38.461-125v-93.75c0-35.875-11.734-62.904-30.048-83.333 48.214 0 86.255 21.796 87.74 83.333v93.75c0 83.334 57.693 125 96.154 125 0 0-38.461-41.666-38.461-125v-93.75c0-38.1-9.327-64.92-22.837-83.333 42.067 0 80.529 22.937 80.529 83.333v93.75c0 83.334 57.692 125 96.154 125 0 0-38.462-41.666-38.462-125v-93.75C403.846 10.417 307.692 0 269.231 0zm115.385 395.834c-20.535 0-57.396 41.666-76.923 41.666V500c20.66 0 58.67-41.666 76.923-41.666 19.393 0 56.388 41.666 76.923 41.666 18.288 0 57.395-41.666 76.923-41.666 19.394 0 58.528 41.666 76.923 41.666 19.394 0 58.67-41.666 76.923-41.666S480.607 500 500 500v-62.5c-15.971 0-56.389-42.904-76.923-41.666-18.395 0-56.357 41.666-76.923 41.666-17.112 0-57.53-41.666-76.923-41.666-19.394 0-59.773 41.666-76.923 41.666-18.289 0-56.389-41.666-76.923-41.666z" style="marker:none" color="#000" overflow="visible" fill="#2472e7" fill-opacity=".941"/></svg>