<svg xmlns="http://www.w3.org/2000/svg" version="1.0" width="500" height="500"><circle cx="250" cy="250" r="240" fill="#7e5a20" stroke="#fff" stroke-width="20"/><g stroke-width="1.143" fill="#fff" fill-rule="evenodd"><path d="M177.508 446.51l37.462-246.309 35.273-23.61 34.504 24.24s31.59 249.685 27.918 247.682c-3.673-2.002-134.422 1.001-135.157-2.002z" opacity=".5"/><path d="M78.358 96.828l60.713-56.815 147.124 200.588-18.742 18.132zM506.195 96.828l-60.713-56.815-147.124 200.588 18.742 18.132zM506.195 421.918l-60.713 56.815-147.124-200.588 18.742-18.132zM78.358 421.918l60.713 56.815 147.124-200.588-18.742-18.132z" stroke="#fff" stroke-width="28.119" stroke-linecap="round" stroke-linejoin="round" transform="matrix(.67437 0 0 .67897 52.896 51.678)"/></g></svg>