<svg xmlns="http://www.w3.org/2000/svg" width="500" height="500" version="1.0">
  <path d="M207.253 487.063c-.956-.197-4.737-.853-8.402-1.458-12.641-2.088-21.135-3.716-22.299-4.273-.641-.307-2.731-.93-4.643-1.386-6.01-1.43-9.795-2.574-11.42-3.45-.863-.465-1.725-.846-1.914-.846-2.128 0-14.037-7.585-18.95-12.069-3.565-3.253-6.834-9.196-7.62-13.85-.906-5.376 3.167-13.2 9.516-18.278 2.923-2.337 9.422-6.046 12.137-6.924.796-.258 3.664-1.912 6.373-3.675 2.709-1.764 5.172-3.21 5.473-3.213.302-.004 1.493-.485 2.648-1.07 1.155-.585 3.414-1.402 5.022-1.815 1.607-.414 3.532-1.049 4.278-1.41 1.355-.658 1.355-.658-.727-2.95-2.498-2.749-7.673-7.338-13.818-12.256-10.243-8.198-19.626-16.632-26.74-24.035-.737-.766-2.14-2.195-3.119-3.176-1.84-1.845-8.36-9.542-8.36-9.87 0-.103-.71-.993-1.575-1.978-1.758-2-2.93-3.433-5.11-6.238a297.556 297.556 0 0 0-3.55-4.446 341.291 341.291 0 0 1-3.398-4.235c-.729-.932-2.52-3.219-3.982-5.082-1.46-1.863-2.658-3.563-2.66-3.778-.004-.214-.38-.693-.839-1.063-.88-.711-11.913-16.657-11.913-17.219 0-.18-.492-1.103-1.095-2.05-3.01-4.735-5.858-9.453-5.858-9.705 0-.156-.506-1.091-1.125-2.079-.619-.987-2.333-4.082-3.808-6.877-1.476-2.794-3.34-6.32-4.144-7.834a167.618 167.618 0 0 1-2.861-5.717c-.771-1.63-1.658-3.345-1.971-3.811-.823-1.223-4.79-10.719-6.547-15.668-.827-2.33-2.156-6.06-2.955-8.292-1.956-5.46-4.779-18.131-5.527-24.808-.336-2.99-.902-7.813-1.258-10.718-.99-8.07-.006-19.507 2.112-24.573 1.568-3.75.631-18.624-2.064-32.766-.615-3.232-1-6.017-.853-6.19.146-.173-.093-1.722-.533-3.441-.44-1.72-1.106-5.509-1.48-8.42-.376-2.911-.798-5.77-.94-6.352-.616-2.546-2.024-9.622-3.158-15.88-1.785-9.845-1.84-27.503-.104-33.031.658-2.096 1.528-5.05 1.932-6.564.946-3.545 5.536-10.61 10.028-15.438 3.56-3.827 9.547-8.493 11.469-8.94.572-.132 1.04-.408 1.04-.613 0-.514 5.58-3.173 9.78-4.66 6.625-2.346 19.677-4.116 26.433-3.584 8.775.69 17.673 2.823 23.257 5.574 1.545.762 11.714 8.158 14.883 10.826 1.638 1.378 1.638 1.378 1.298-4.974-.34-6.36-1.347-11.137-2.578-12.221-.36-.318-2.226-.682-4.144-.809-4.37-.29-8.611-1.793-9.974-3.536-1.054-1.349-3.518-6.205-7.17-14.136-1.126-2.445-3.07-5.992-4.32-7.882-2.828-4.278-2.835-4.66-.098-5.252 5.743-1.24 32.968-2.784 56.347-3.193 8.126-.143 15.687-.354 16.803-.47 3.141-.328 94.07-.385 127.759-.081 26.361.238 39.13.636 44.325 1.383.796.115 5.36.709 10.14 1.321 9.504 1.217 11.166 1.574 11.657 2.508.357.68-.053 1.353-8.775 14.423-3.266 4.893-6.33 9.582-6.809 10.42-1.299 2.273-2.983 3.199-6.392 3.515-4.795.445-6.59 1.008-7.255 2.277-1.322 2.525-2.501 15.764-1.402 15.75.239-.002 3.302-2 6.808-4.437 3.505-2.438 6.667-4.436 7.027-4.441.359-.005 1.008-.321 1.442-.703 1.243-1.095 9.908-3.903 14.243-4.616 10.404-1.71 15.312-1.639 24.912.36 6.346 1.321 16.656 6.644 25.323 13.074 6.318 4.687 6.853 5.223 10.146 10.163 4.304 6.46 6.703 11.778 7.527 16.69 1.388 8.272.388 21.704-2.866 38.496-.361 1.863-.746 4.245-.855 5.293-.109 1.048-.456 2.763-.771 3.811-.6 1.99-1.324 5.628-2.405 12.07-.352 2.095-.887 4.763-1.19 5.928-2.249 8.632-2.675 27.418-.796 35 2.707 10.914 2.75 11.302 2.76 24.921.01 12.527-.56 19.336-1.946 23.291-.285.815-.811 3.293-1.168 5.505-1.304 8.076-7.447 27.096-11.078 34.302a103.713 103.713 0 0 0-2.26 4.87c-1.958 4.579-4.667 9.797-8.739 16.836-.91 1.575-1.655 3.075-1.655 3.335 0 .506-.791 1.89-6.382 11.166-3.214 5.332-16.3 24.434-19.766 28.853-1.537 1.96-7.713 10.05-9.461 12.396-2.544 3.412-23.883 26.156-30.866 32.898a1543.442 1543.442 0 0 0-6.637 6.46c-1.985 1.943-4.486 4.063-5.56 4.71-1.074.647-3.173 2.39-4.664 3.876-1.492 1.485-4.34 4.19-6.33 6.01-1.99 1.82-3.619 3.395-3.619 3.5 0 .105 2.542 1.093 5.65 2.196 5.33 1.892 10.507 4.604 17.205 9.014 1.61 1.06 4.414 2.571 6.229 3.358 11.965 5.183 18.727 16.176 16.123 26.212-2.143 8.26-12.894 16.885-27.535 22.091-11.6 4.125-28.63 8.084-42.297 9.833-4.255.544-92.473.813-95.022.29zM417.787 151.91c1.392-1.725 3.785-8.118 5.073-13.556a374.85 374.85 0 0 1 2.086-8.258c.652-2.445 1.52-5.97 1.931-7.834a281.66 281.66 0 0 1 1.772-7.41c.801-3.147 1.025-6.285 1.029-14.399.004-10.021-.05-10.519-1.593-14.61-2.041-5.414-7.177-12.682-11.087-15.69-3.834-2.948-10.428-4.64-16.678-4.276-14.1.82-30.17 14.94-35.491 31.189-2.855 8.716 1.544 19.997 11.065 28.372 3.596 3.164 14.581 11.114 18.14 13.128 4.503 2.548 18.06 11.543 19.754 13.106 2.262 2.088 2.494 2.102 3.999.238zm-332.316.158c.696-.26 2.438-1.29 3.872-2.289 1.435-.998 4.303-2.772 6.374-3.94a391.621 391.621 0 0 0 5.215-2.985c.796-.473 3.646-2.156 6.332-3.739 14.684-8.655 19.392-12.392 29.238-23.205 5.022-5.515 5.064-5.607 5.055-11.02-.008-4.58-1.165-10.393-2.406-12.088-.307-.42-.558-1.183-.558-1.697 0-1.243-5.03-8.751-8.348-12.46-4.543-5.08-9.79-8.465-17.725-11.437-4.199-1.572-4.585-1.634-11.415-1.816-6.58-.175-7.367-.109-11.351.953-6.266 1.67-13.122 7.108-15.44 12.245-3.832 8.498-4.154 24.044-.812 39.226a300.33 300.33 0 0 1 1.703 8.47c.449 2.445 1.075 5.398 1.39 6.563 1.069 3.952 2.238 8.885 2.609 11.01.442 2.53 2.375 7.331 3.27 8.12.778.685 1.355.702 2.997.09z" style="fill:#7e5a20;fill-opacity:1;stroke:#7e5a20;stroke-width:5.02427;stroke-miterlimit:4;stroke-dasharray:none;stroke-opacity:1"/>
</svg>
