<svg xmlns="http://www.w3.org/2000/svg" version="1.0" width="500" height="500"><g transform="translate(0 -80)"><circle cx="250" cy="330" r="240" fill="#7e5a20" stroke="#fff" stroke-width="20" stroke-linejoin="round"/><path d="M396.127 176.133h-.203c.232-.204.36-.41.36-.618 0-4.895-65.493-8.863-146.284-8.863-80.79 0-146.283 3.968-146.283 8.863 0 .208.127.414.36.618h-.36l129.644 122.47v138.58l-83.99 61.277h.207c-.404.223-.618.449-.618.677 0 3.382 45.238 6.122 101.042 6.122s101.041-2.74 101.041-6.122c0-.228-.214-.455-.618-.677h.049l-83.99-61.278V298.604zm-141.953 98.645c-2.34 2.209-6.165 2.209-8.504 0l-62.64-59.174c-2.338-2.209-1.644-4.017 1.543-4.017H315.27c3.187 0 3.881 1.807 1.543 4.017z" fill="#fff"/></g></svg>