<svg xmlns="http://www.w3.org/2000/svg" version="1.0" width="500" height="500"><g transform="translate(0 -80)"><circle cx="250.05" cy="329.95" r="239.964" fill="#ac39ac" stroke="#fff" stroke-width="20" stroke-linejoin="round"/><g transform="matrix(.8305 0 0 .87381 7.964 56.702)" stroke-width="1.06" font-size="12"><circle r="78.381" cy="461.963" cx="200.532" transform="matrix(-.98346 0 0 .98346 323.422 -101.892)" fill="none" stroke="#fff" stroke-width="27.549"/><circle r="78.381" cy="461.963" cx="200.532" transform="matrix(-.98346 0 0 .98346 653.783 -103.393)" fill="none" stroke="#fff" stroke-width="27.549"/><path d="M395.5 219.785l-198.216 1.001-70.076 130.142h134.146l140.153-95.104" fill="none" stroke="#fff" stroke-width="21.753" stroke-linejoin="round"/><path d="M387.884 141.791c10.767 0 18.905-.24 27.247 12.503 2.4 4.248 3.498 9.435 2.612 14.599-1.064 5.87-4.54 11.639-8.637 15.053-5.426 4.522-10.575 4.173-9.743 8.238 1.068 5.215 4.326 12.463 7.848 24.231 3.575 11.946 7.82 26.567 11.986 40.968 4.166 14.4 8.256 28.59 11.494 39.645a1316.009 1316.009 0 004.118 13.83c1.058 3.464 1.992 6.154 1.906 5.962 3.373 5.935 3.832 9.802 9.49 14.853 6.343 5.552 11.508 9.654 13.3 10.906 4.553 3.308 6.67 10.287 4.266 13.736-3.03 4.7-9.288 5.421-13.861 4.015-4.343-1.378-11.217-3.746-19.188-10.349l-.062-.092-.092-.061c-11.091-9.514-15.195-21.06-15.612-21.728l-.584-.892-.4-.983c-.96-2.366-1.537-4.452-2.674-8.175a1304.886 1304.886 0 01-4.21-14.107c-3.264-11.146-7.333-25.357-11.494-39.738-4.161-14.38-8.395-28.927-11.925-40.721-3.529-11.794-5.759-21.48-6.583-23.542-2.006-5.015-3.031-10.43-1.66-15.858 1.372-5.428 5.47-9.81 9.149-10.828 8.397-2.35 6.169-8.39 1.873-8.398l-36-.073-.09-22.994h37.526z" fill="#fff" fill-rule="evenodd"/><path d="M258.786 346.853l-67.957-166.351" fill="#fff" fill-rule="evenodd" stroke="#fff" stroke-width="26.051"/><path d="M282.147 304.379l-41.06 95.567" fill="#fff" fill-rule="evenodd" stroke="#fff" stroke-width="9.509" stroke-linecap="round"/><circle r="78.381" cy="461.963" cx="200.532" transform="matrix(-.2773 0 0 .24491 316.21 238.036)" fill="#fff" fill-rule="evenodd" stroke="#fff" stroke-width="33.17"/><path d="M300.426 304.422l-36.27.333" fill="#fff" fill-rule="evenodd" stroke="#fff" stroke-width="13.287" stroke-linecap="round"/><path d="M259.577 398.574l-36.27.332" fill="#fff" fill-rule="evenodd" stroke="#fff" stroke-width="13.286" stroke-linecap="round"/><path d="M157.559 165.636h85.3c3.185 0 7.296 5.635 3.185 9.38-4.447 4.231-44.42 12.918-44.42 12.918s-10.972 3.008-16.812 2.3c-5.84-.707-26.015-2.477-27.253-24.598z" fill="#fff" fill-rule="evenodd"/></g></g></svg>