<svg xmlns="http://www.w3.org/2000/svg" version="1.0" width="500" height="500"><g transform="translate(0 -80)"><circle cx="250.05" cy="329.95" r="239.964" style="fill:#e59400;fill-opacity:1;stroke:#fff;stroke-width:20;stroke-linejoin:round"/><path d="m276.097 288.745.826 26.458 25.631 14.883v26.459H196.72v-26.46h13.23c26.458 0 26.458-26.458 0-26.458H157.03c-26.458 0-26.458 26.459 0 26.459h13.23v26.459l-14.882 36.38c-1.104-.052-2.19 0-3.308 0-33.615 0-61.186 27.57-61.186 61.186 0 33.615 27.571 61.185 61.186 61.185 33.616 0 61.186-27.57 61.186-61.185 0-6.35-1.466-12.399-3.308-18.19h39.688l57.045-52.918h.006l7.441 19.017c-16.924 11.031-28.112 30.66-28.112 52.091 0 33.615 27.57 61.185 61.186 61.185 33.615 0 62.012-27.57 62.012-61.185 0-33.616-28.397-61.187-62.012-61.187-1.117 0-2.204-.051-3.307 0l-14.883-36.38v-36.38zm-83.51 94.258h82.346l-34.555 33.074h-41.176c-4.071-4.968-8.665-10.542-14.056-14.057zm-40.515 39.688c17.53 0 31.42 13.89 31.42 31.42s-13.89 31.42-31.42 31.42c-17.528 0-31.42-13.89-31.42-31.42s13.892-31.42 31.42-31.42zm195.132 0c17.53 0 31.42 13.89 31.42 31.42s-13.89 31.42-31.42 31.42c-17.528 0-30.592-13.89-30.592-31.42s13.064-31.42 30.592-31.42z" style="fill:#fff;fill-opacity:1;stroke:none;stroke-width:26.45859909"/><path d="M160.269 147.528c-37.782 0-68.41 30.627-68.41 68.41 0 37.782 30.628 68.41 68.41 68.41 25.32 0 47.174-13.758 59.004-34.205h36.77l27.364-27.365 27.364 27.365 27.363-27.365 27.365 27.365h13.681l41.047-34.205-41.047-34.206H219.272c-11.829-20.447-33.682-34.204-59.003-34.204Z" style="fill:red;fill-opacity:1;stroke:#fff;stroke-width:14.28856659;stroke-miterlimit:4;stroke-dasharray:none;stroke-opacity:1"/><circle style="opacity:1;vector-effect:none;fill:red;fill-opacity:1;fill-rule:nonzero;stroke:#fff;stroke-width:13.33333302;stroke-linecap:butt;stroke-linejoin:round;stroke-miterlimit:4;stroke-dasharray:none;stroke-dashoffset:0;stroke-opacity:1;paint-order:fill markers stroke" cx="136.854" cy="215.937" r="18.89"/></g></svg>