<svg xmlns="http://www.w3.org/2000/svg" version="1.0" width="580" height="580"><ellipse style="fill:#ff9500;fill-opacity:1;stroke:#fff;stroke-width:20;stroke-linejoin:round;stroke-miterlimit:4;stroke-dasharray:none;stroke-opacity:1" cx="290.435" cy="290.829" rx="273.934" ry="274.361"/><g style="stroke:#fff;stroke-opacity:1"><path style="fill:none;fill-rule:evenodd;stroke:#fff;stroke-width:26.27972603;stroke-linecap:butt;stroke-linejoin:miter;stroke-miterlimit:4;stroke-dasharray:none;stroke-opacity:1" d="M646.272 138.471c-1.51 8.33-195.447 368.722-195.447 368.722l390.348-.646z" transform="matrix(.862 0 0 .862 -266.611 9.71)"/><path d="M646.272 162.58c-.74 4.08-12.77 24.682 12.832 114.55 26.674 93.627 98.272 230.063 98.272 230.063l83.797-.646z" style="fill:#fff;fill-opacity:1;fill-rule:evenodd;stroke:#fff;stroke-width:26.27972603;stroke-linecap:butt;stroke-linejoin:miter;stroke-miterlimit:4;stroke-dasharray:none;stroke-opacity:1" transform="matrix(.862 0 0 .862 -266.611 9.71)"/><path style="fill:#fff;fill-opacity:1;fill-rule:evenodd;stroke:#fff;stroke-width:26.27972603;stroke-linecap:butt;stroke-linejoin:miter;stroke-miterlimit:4;stroke-dasharray:none;stroke-opacity:1" d="M649.653 162.58c.739 4.08 12.77 24.682-12.833 114.55-26.673 93.627-98.272 230.063-98.272 230.063l-83.797-.646z" transform="matrix(.862 0 0 .862 -266.611 9.71)"/><path d="m607.696 63.73 233.477 442.817Zm78.818 2.411-233.12 440.406Z" style="fill:none;fill-rule:evenodd;stroke:#fff;stroke-width:26.27972603;stroke-linecap:butt;stroke-linejoin:miter;stroke-miterlimit:4;stroke-dasharray:none;stroke-opacity:1" transform="matrix(.862 0 0 .862 -266.611 9.71)"/></g></svg>