<svg xmlns="http://www.w3.org/2000/svg" version="1.0" width="500" height="500"><g transform="translate(0 -80)" stroke="#fff" stroke-linejoin="round"><circle cx="249.488" cy="329.95" r="239.96" fill="#7e5a20" stroke-width="20"/><g stroke-width="7.136" font-weight="400" font-size="20.578" font-family="Bitstream Vera Sans" fill="#fff" stroke-linecap="round"><path d="M49.303 232.715l.354-96.698h32.16v32.16h32.161v-32.16h32.16v32.16H178.3v-32.16h32.161V232.5H178.3v64.32h32.16V264.66h32.16v32.158h32.162v-32.158h32.16v96.48h3.84v12.161H242.62v84.322H81.817V232.5l-32.516.29.002-.075z" transform="matrix(.7565 0 0 .75562 29.517 118.018)"/><path d="M532.243 232.715l-.35-96.698h-32.117v32.16H467.66v-32.16h-32.117v32.16h-32.116v-32.16h-32.116V232.5h32.116v64.322h-32.116v-32.16h-32.117v32.16h-32.116v-32.16h-32.116v96.479h16.116v12.161h48.116v84.322h160.582V232.5l32.471.29-.004-.075z" transform="matrix(.7565 0 0 .75562 29.517 118.018)"/></g></g></svg>