<svg xmlns="http://www.w3.org/2000/svg" version="1.0" width="500" height="500"><g transform="translate(0 -80)"><circle cx="250.049" cy="329.95" r="239.96" fill="#999" fill-opacity=".941" stroke="#fff" stroke-width="20" stroke-linejoin="round"/><g stroke-width="1.1" fill="#fff"><path d="M38.447 388.14c1.949-4.981 26.675-43.516 54.948-85.632 40.546-60.399 61.42-81.332 98.822-99.098 58.55-27.812 117.162-29.41 138.509-3.776 50.49 60.631 102.593 129.87 117.598 156.273 21.144 37.207 10.373 54.604-11.945 19.293-8.797-13.92-33.46-47.16-54.805-73.868-91.45-114.426-91.73-114.543-176.676-74.585-41.75 19.639-57.977 35.891-93.264 93.412-23.496 38.3-50.373 71.303-59.725 73.338-9.353 2.036-15.41-.375-13.462-5.356z"/><path d="M38.447 388.14c1.949-4.981 26.675-43.516 54.948-85.632 40.546-60.399 61.42-81.332 98.822-99.098 58.55-27.812 117.162-29.41 138.509-3.776 50.49 60.631 102.593 129.87 117.598 156.273 28.319 50.642-18.678 56.566-143.306 59.953-66.36 2.102-70.17.794-139.054 1.557-32.165-1.02-128.714-17.943-127.517-29.276z" opacity=".4"/><path d="M143.636 395.592c0-29.42 74.244-122.5 97.711-122.5 37.542 0 76.43 25.713 104.754 69.264 16.716 25.701 30.392 49.557 30.392 53.013 0 3.456-52.393 6.284-116.428 6.284-64.036 0-116.429-2.728-116.429-6.061z"/></g></g></svg>