<svg xmlns="http://www.w3.org/2000/svg" version="1.0" width="500" height="500"><g transform="translate(0 -80)"><circle cx="250" cy="330" r="240" fill="#7e5a20" stroke="#fff" stroke-width="20" stroke-linejoin="round"/><g stroke-width="1.089"><g transform="matrix(.76664 0 0 .7667 -10.082 111.812)" stroke="#fff"><path d="M406.867 39.68c-11.664 4.362-27.645 10.85-33.634 10.85-5.99 0-10.85-4.86-10.85-10.85 0-5.988 4.86-10.85 10.85-10.85 5.708.22 22.306 6.966 33.634 10.85z" opacity=".985" fill="#fff" stroke-width="16.335" stroke-linecap="round" stroke-linejoin="round"/><path d="M396.383 39.68c11.663 4.362 27.645 10.85 33.634 10.85 5.99 0 10.85-4.86 10.85-10.85 0-5.988-4.86-10.85-10.85-10.85-5.708.22-22.306 6.966-33.634 10.85z" opacity=".985" fill="#fff" stroke-width="16.335" stroke-linecap="round" stroke-linejoin="round"/><path d="M401.442 39.138v66.184l.814 25.768" fill="none" stroke-width="32.669" stroke-linecap="round"/><ellipse cx="401.442" cy="125.394" rx="22.785" ry="45.569" opacity=".985" fill="#fff" stroke-width="32.669" stroke-linecap="round" stroke-linejoin="round"/><path d="M522.96 130.819l-177.937-1.005-14.105-.08c-69.438-1.085-65.098 64.014-65.098 64.014" fill="none" stroke-width="54.449"/></g><path d="M282.165 305.53h-.121c.138-.12.214-.24.214-.362 0-2.86-39.06-5.18-87.244-5.18s-87.245 2.32-87.245 5.18c0 .121.076.242.215.361h-.215l27.229 207.648h.123c-.241.13-.369.262-.369.396 0 1.976 26.98 3.578 60.262 3.578 33.283 0 60.263-1.602 60.263-3.578 0-.134-.128-.266-.369-.396zm-44.74 192.466c-1.394 1.29-84.127.686-85.522-.605l-25.866-179.289c44.148.147 75.94 2.342 135.953-1.21z" fill="#fff"/></g></g></svg>