<svg xmlns="http://www.w3.org/2000/svg" version="1.0" width="500" height="500"><g transform="translate(0 -80)"><circle cx="250" cy="330" r="240" opacity=".33" fill="#fff" stroke="#fff" stroke-width="20" stroke-linejoin="round"/><g stroke-width="1.093"><path d="M192.014 454.456h115.973v59.797H192.014z"/><path d="M344.728 535.235H155.272c-9.984 0-18.078-9.394-18.078-20.983 0-11.588 8.094-20.983 18.078-20.983h189.456c9.984 0 18.078 9.395 18.078 20.983 0 11.589-8.094 20.983-18.078 20.983z"/><path d="M349.066 461.057H150.934c-60.057 0-108.742-54.198-108.742-121.056h415.616c0 66.858-48.685 121.056-108.742 121.056z" fill="#0080ff" stroke="#000" stroke-width="24.99948712"/><path d="M167.918 286.553c0 33.393 36.75 60.463 82.082 60.463 45.334 0 82.082-27.07 82.082-60.463zM172.573 262.176c-5.92 0-11.858-2.228-16.601-6.752-10.637-10.147-24.393-15.735-38.732-15.735-13.7 0-24.806-11.754-24.806-26.252s11.107-26.252 24.806-26.252c26.631 0 52.184 10.385 71.95 29.241 10.175 9.708 10.99 26.306 1.817 37.076-4.898 5.748-11.652 8.674-18.434 8.674zM327.426 262.176c-6.782 0-13.536-2.925-18.433-8.675-9.174-10.769-8.36-27.369 1.817-37.077 19.766-18.855 45.319-29.24 71.95-29.24 13.7 0 24.806 11.753 24.806 26.251 0 14.498-11.107 26.252-24.806 26.252-14.339 0-28.095 5.588-38.732 15.735-4.743 4.524-10.683 6.754-16.602 6.754zM250 230.66c-16.689 0-30.219-9.395-30.219-20.983v-79.93c0-11.588 13.53-20.982 30.219-20.982s30.219 9.394 30.219 20.983v79.929c0 11.588-13.53 20.983-30.219 20.983z"/></g></g></svg>