<svg xmlns="http://www.w3.org/2000/svg" version="1.0" width="500" height="500"><g transform="translate(0 -80)"><circle cx="250" cy="330" r="240" fill="#0092da" stroke="#fff" stroke-width="20" stroke-linejoin="round"/><g stroke-width="1.136" fill="#fff"><path d="M265.109 398.217h133.28" stroke="#fff" stroke-width="21.252" stroke-linecap="round" stroke-linejoin="round" transform="matrix(1.11459 0 0 1.11035 -79.02 -12.423)"/><path d="M325.4 283.745c-27.114.845-53.342 9.425-80.528 9.88-34.93 2.294-76.998 3.876-111.941 2.337 1.996 1.295 11.544.373 11.461 10.504 2.816 5.211-6.143 12.856-2.37 14.38 44.414 2.777 104.78 26.59 152.504 46.649 24.344 8.366 50.939 6.824 76.25 4.625 13.215-2.205 29.928-3.262 37.156-16.5 3.203-9.116-.001-19.287-3.344-27.875-11.676-27.027-41.174-41.71-69.465-43.737a87.563 87.563 0 00-9.722-.263zm25.963 11.972c12.086 1.038 24.303 7.056 32.102 16.183 8.623 8.08 13.16 20.047 14.023 31.942-15.666.529-28.817-.08-43.716-.08-7.736-16.06-16.47-31.198-24.127-47.295 7.229-.563 12.936-1.236 21.718-.75zm-34.593 1.725c7.208 7.019 17.12 39.027 20.935 47.789-12.844-.144-32.909.354-45.752.19-.134-7.958-.62-39.777-.752-47.736 8.105-.124 17.464-.133 25.569-.243z" stroke="#fff" stroke-width="9.66" stroke-linecap="round" stroke-linejoin="round" transform="matrix(1.11459 0 0 1.11035 -79.02 -12.423)"/><path d="M311.728 272.319c-12.306-2.262-27.054 8.73-38.931 13.814l36.42 2.512 41.79-5.024c-8.588-4.456-26.072-13.004-39.28-11.302z" stroke="#fff" stroke-width="4.205" transform="matrix(1.11459 0 0 1.11035 -79.02 -12.423)"/><path d="M311.728 245.318l-.628 30.768" stroke="#fff" stroke-width="11.819" transform="matrix(1.11459 0 0 1.11035 -79.02 -12.423)"/><path d="M156.082 228.992l154.39 14.442 159.413-13.814-7.535 8.791-150.622 8.163-148.11-6.907z" stroke="#fff" stroke-width="5.796" stroke-linecap="round" stroke-linejoin="round" transform="matrix(1.11459 0 0 1.11035 -79.02 -12.423)"/><path d="M124.329 293.751c-3.563-9.48-6.99-19.038-10.522-28.537l-6.594.375v0c4.655 9.709 9.083 19.828 13.74 29.535M132.419 323.78l10.169 29.184c1.683-.543 6.532.988 6.906-1.063-5.378-9.422-9.376-19.687-13.765-29.715" stroke="#fff" stroke-width="11.479" stroke-linecap="round" stroke-linejoin="round" transform="matrix(1.11459 0 0 1.11035 -79.02 -12.423)"/><path d="M62.067 311.025c-14.08.031-23.64 17.17-16.443 29.121 6.278 12.877 26.452 13.747 33.926 1.569 9.008-13.139-1.363-31.739-17.483-30.69zm.536 8.88c9.303-.875 15.165 11.705 8.442 18.17-5.956 7.174-18.968 2.367-18.869-6.904-.336-5.826 4.569-11.125 10.427-11.266z"/></g></g></svg>