<svg xmlns="http://www.w3.org/2000/svg" version="1.0" width="500" height="500"><g stroke-width="1.157" font-weight="400" font-size="40" font-family="NPSPICT3" fill="#0092da" stroke="#0092da" stroke-linejoin="round"><path d="M358.916 61.994c2.548 0 3.823-1.06 3.823-3.182 0-1.28-.634-2.34-1.902-3.182l-78.215-43.231-77.556 43.23c-1.281.842-1.922 1.903-1.921 3.183 0 2.122 1.06 3.183 3.182 3.182zm3.823 108.11c4.656 0 6.985-2.328 6.985-6.986 0-4.669-2.329-7.004-6.985-7.004H203.145c-4.657 0-6.986 2.335-6.986 7.004 0 4.658 2.329 6.986 6.986 6.986h13.35l-52.138 392.973h236.53l-51.498-392.973z" style="line-height:125%;-inkscape-font-specification:NPSPICT3;text-align:start" stroke-width="12.524" transform="matrix(.86397 0 0 .86444 6.41 2.278)"/><g color="#000" stroke-width="10.86"><path style="line-height:125%;-inkscape-font-specification:NPSPICT3;font-variant-ligatures:normal;font-variant-position:normal;font-variant-caps:normal;font-variant-numeric:normal;font-variant-alternates:normal;font-feature-settings:normal;text-indent:0;text-align:start;text-decoration-line:none;text-decoration-style:solid;text-decoration-color:#000;text-transform:none;text-orientation:mixed;white-space:normal;shape-padding:0;isolation:auto;mix-blend-mode:normal;solid-color:#000;solid-opacity:1" d="M113.697 257.065a4.693 4.693 0 00-4.817 4.724l.39 56.489a4.693 4.693 0 005.272 4.624l133.49-16.638a4.693 4.693 0 004.111-4.656v-22.825a4.693 4.693 0 00-4.1-4.654l-133.879-17.027a4.686 4.686 0 00-.467-.037zM460.053 257.065a4.693 4.693 0 014.817 4.724l-.39 56.489a4.693 4.693 0 01-5.272 4.624l-133.49-16.638a4.693 4.693 0 01-4.111-4.656v-22.825a4.693 4.693 0 014.1-4.654l133.878-17.027c.156-.02.312-.033.468-.037z" overflow="visible" transform="matrix(1.1411 0 0 1.14171 -76.763 -234.022)"/></g></g></svg>