<svg xmlns="http://www.w3.org/2000/svg" version="1.0" width="500" height="500"><g stroke-width="1.205" color="#000" font-weight="400" font-family="sans-serif" fill="#666"><path d="M315.824 388.695C276.444 303.66 190.155 229.197 93.196 194.09c-25.665-9.293-63.696-17.17-83.34 0-13.142 11.488-13.142 37.251 0 48.74 14.2 12.411 41.691-6.718 60.244 0 82.572 29.896 156.058 93.31 189.593 165.727 7.503 16.202-14.876 39.873-.967 52.43 12.929 11.671 42.398 12.086 55.75.785 20.023-16.947 11.805-50.495 1.348-73.077zM184.176 114.124c39.38 85.034 125.669 159.498 222.628 194.605 25.665 9.292 63.696 17.17 83.34 0 13.142-11.488 13.142-37.252 0-48.74-14.2-12.412-41.691 6.718-60.244 0-82.572-29.897-156.058-93.31-189.593-165.727-7.503-16.202 14.876-39.873.967-52.43-12.929-11.672-42.399-12.087-55.75-.785-20.023 16.947-11.805 50.495-1.348 73.077z" style="line-height:normal;font-variant-ligatures:normal;font-variant-position:normal;font-variant-caps:normal;font-variant-numeric:normal;font-variant-alternates:normal;font-feature-settings:normal;text-indent:0;text-align:start;text-decoration-line:none;text-decoration-style:solid;text-decoration-color:#000;text-transform:none;text-orientation:mixed;white-space:normal;shape-padding:0;isolation:auto;mix-blend-mode:normal;solid-color:#000;solid-opacity:1" overflow="visible"/></g></svg>