<svg xmlns="http://www.w3.org/2000/svg" version="1.0" width="500" height="500"><g stroke-width=".979" color="#000" font-weight="400" font-family="sans-serif" fill="#666"><path d="M324.859 67.74c-46.84 111.754-45.949 251.978-.001 364.11C337.02 461.53 360.495 500 392.277 500c21.263 0 45.106-24.102 45.106-45.596 0-23.223-39.943-27.808-48.734-49.264-39.13-95.492-39.89-214.91 0-310.08 8.924-21.293 48.935-25.136 49.304-48.258C438.296 25.311 414.84.824 393.58.477c-31.881-.519-56.281 37.586-68.72 67.264zM177.25 432.26c46.84-111.754 45.95-251.978.002-364.11C165.09 38.47 141.615 0 109.833 0 88.57 0 64.726 24.102 64.726 45.596c0 23.223 39.944 27.808 48.735 49.264 39.13 95.492 39.89 214.91 0 310.08-8.924 21.293-48.936 25.136-49.304 48.258-.343 21.491 23.113 45.978 44.374 46.325 31.881.519 56.28-37.586 68.72-67.264z" style="line-height:normal;font-variant-ligatures:normal;font-variant-position:normal;font-variant-caps:normal;font-variant-numeric:normal;font-variant-alternates:normal;font-feature-settings:normal;text-indent:0;text-align:start;text-decoration-line:none;text-decoration-style:solid;text-decoration-color:#000;text-transform:none;text-orientation:mixed;white-space:normal;shape-padding:0;isolation:auto;mix-blend-mode:normal;solid-color:#000;solid-opacity:1" overflow="visible"/></g></svg>