<svg xmlns="http://www.w3.org/2000/svg" version="1.0" width="500" height="500"><g transform="matrix(1.68779 0 0 1.68221 -3.768 -473.04)"><ellipse cx="150.355" cy="429.815" rx="142.199" ry="142.69" fill="#ac39ac" stroke="#fff" stroke-width="11.848" stroke-linejoin="round"/><g stroke-width="1.264" fill="#fff"><path d="M236.476 342.424s-17.717 60.247-69.777 42.288c-.009.038 6.282-52.487 69.777-42.288zM149.214 416.95c8.996-8.928 21.28-14.315 34.92-14.315 27.52 0 49.915 22.371 49.915 50.031 0 1.02 0 1.893-.049 2.96h-.097c-.87 10.822-4.304 24.264-12.43 40.957 0 0-13.978 26.836-25.199 39.161l-1.015.971c-5.417 5.483-13.06 8.929-21.33 8.929-10.157 0-19.153-4.95-24.619-12.617h-.145c-5.465 7.667-14.461 12.617-24.618 12.617-8.368 0-15.913-3.397-21.378-8.929l-1.016-.97c-11.124-12.326-25.199-39.162-25.199-39.162-8.126-16.693-11.56-30.232-12.333-40.956h-.242c-.145-1.02-.145-1.893-.145-2.96 0-27.661 22.393-50.032 50.01-50.032 13.592 0 25.877 5.387 34.97 14.316M75.33 323.73s10.526 52.636 56.201 41.31c.005.033-1.378-45.16-56.202-41.31z"/><path d="M282.76 231.05s-1.083-114.903-12.986-144.878c-11.903-29.974 40.038 0 40.038 0z" stroke="#fff" stroke-width="6.112" transform="matrix(.4688 0 0 .47036 15.201 297.68)"/></g></g></svg>