<svg xmlns="http://www.w3.org/2000/svg" version="1.0" width="580" height="580"><path style="display:inline;opacity:1;vector-effect:none;fill:#ff9500;fill-opacity:1;fill-rule:nonzero;stroke:none;stroke-width:20;stroke-linecap:butt;stroke-linejoin:round;stroke-miterlimit:4;stroke-dasharray:none;stroke-dashoffset:0;stroke-opacity:1;paint-order:fill markers stroke" d="M56.88 8.949h466.24v562.102H56.88z"/><path style="color:#000;opacity:1;fill:#fff;fill-opacity:1;stroke:#fff;stroke-width:20;stroke-linejoin:round;stroke-miterlimit:4;stroke-dasharray:none;stroke-opacity:1" d="M146.876 76.892c-6.613.002-11.974 5.644-11.975 12.605v400.895c0 5.784 3.739 10.828 8.068 11.772l54.656.944c6.612-.002 11.973-5.645 11.975-12.605v-150.64h85.09c55.775 0 96.585-11.83 119.732-38.64 23.147-26.81 34.677-59.236 34.677-96.012 0-21.262-4.165-41.577-12.718-59.954-8.445-18.257-19.947-33.035-34.437-43.583-14.37-10.462-31.733-17.251-51.732-20.823-14.647-2.65-34.23-3.959-59.847-3.959Zm62.83 72.74h85.09c22.315 0 37.894 1.502 43.836 3.127 10.435 3.054 18.424 8.933 24.974 18.73 6.497 9.716 9.846 21.304 9.846 35.833 0 20.55-5.51 34.242-16.396 44.492-10.635 9.634-30.8 16.087-61.732 16.087h-85.619Z"/></svg>