<svg xmlns="http://www.w3.org/2000/svg" version="1.0" width="500" height="500"><g transform="translate(0 -80)"><circle cx="250" cy="330" r="240" fill="none" stroke="#000" stroke-width="20" stroke-linejoin="round"/><path d="M233.884 509.15c-7.439-9.441-7.769-12.996-1.923-20.714 4.089-5.396 6.5-30.997 2.92-30.997-.898 0-5.406 1.948-10.018 4.329-6.725 3.472-8.094 5.842-6.919 11.979 2.698 14.09-15.692 25.482-25.434 15.755-10.494-10.478.654-33.972 21.05-44.36l12.223-6.227-8.155-4.266c-7.91-4.138-8.65-3.814-24.607 10.746-16.74 15.275-24.893 18.686-24.893 10.412 0-6.893-8.031-21.366-23.805-42.899-27.463-37.49-39.491-70.383-39.626-108.36-.123-34.74 13.539-62.417 40.397-81.843 19.785-14.31 32.03-9.222 15.318 6.365-21.338 19.903-28.306 45.806-20.87 77.59 6.659 28.468 15.36 45.097 34.26 65.48 15.198 16.39 54.277 46.705 60.207 46.705 1.379 0 2.507-3.22 2.507-7.158 0-7.558-13.015-20.6-24.048-24.096-5.17-1.638-5.936-3.592-4.469-11.401 1.6-8.517.737-9.98-8.973-15.201-12.97-6.974-28.518-25.314-36.668-43.251-8.344-18.363-8.344-55.515 0-73.878 8.146-17.929 23.697-36.277 36.648-43.24 7.512-4.04 10.254-7.251 9.151-10.72-1.057-3.327 3.204-9.195 12.99-17.886 8.01-7.113 16.905-16.608 19.768-21.098 6.937-10.88 10.684-10.31 20.842 3.174 4.698 6.236 13.726 15.232 20.063 19.99 7.818 5.872 11.076 10.35 10.137 13.936-.856 3.267.946 6.527 4.724 8.546 12.463 6.66 32.784 28.05 40.425 42.555 6.835 12.973 7.884 18.517 7.884 41.682 0 23.165-1.049 28.709-7.884 41.681-7.687 14.592-27.978 35.904-40.607 42.653-4.935 2.637-5.921 5.203-4.577 11.91 1.385 6.915.513 8.928-4.563 10.537-11.063 3.506-24.082 16.539-24.082 24.107 0 3.937 1.116 7.158 2.48 7.158 4.533 0 37.448-24.12 52.045-38.138 29.977-28.789 44.11-58.96 44.714-95.455.317-19.15-.736-24.135-7.525-35.625-4.342-7.348-11.366-16.598-15.61-20.557-16.538-15.424-4.526-20.717 14.988-6.604 29.27 21.17 40.76 44.21 40.932 82.083.187 40.952-11.627 72.018-43.361 114.026-7.906 10.465-15.913 24.159-17.795 30.43-1.882 6.272-5.11 11.403-7.172 11.403-2.062 0-11.153-6.756-20.201-15.013-15.957-14.56-16.698-14.884-24.607-10.746l-8.155 4.266 12.192 6.21c6.706 3.416 14.995 9.768 18.42 14.116 6.848 8.69 8.253 24.677 2.66 30.26-9.742 9.728-28.131-1.663-25.434-15.754 1.175-6.137-.194-8.507-6.919-11.98-4.611-2.38-9.12-4.328-10.018-4.328-3.628 0-1.313 21.254 3.388 31.096 4.822 10.097 4.781 10.84-1.039 18.655-8.8 11.818-24.867 12.762-33.376 1.96zm-7.928-186.67c5.844-22.415 5.845-43.401.003-71.644-7.719-37.31-7.125-36.674-21.854-23.387-26.93 24.291-33.212 57.092-16.679 87.087 8.62 15.637 27.428 32.13 31.73 27.826 1.203-1.204 4.263-10.15 6.8-19.882zm72.411 9.083c16.425-17.792 24.377-34.344 24.377-50.741 0-22.757-15.128-50.322-32.556-59.32l-8.463-4.37-4.869 21.443c-8.183 36.036-8.87 52.696-3.224 78.209 7.473 33.774 7.296 33.668 24.735 14.779z"/></g></svg>