<svg xmlns="http://www.w3.org/2000/svg" version="1.0" width="500" height="500"><g transform="translate(0 -80)"><circle cx="250" cy="330" r="240" fill="none" stroke="#000" stroke-width="20" stroke-linejoin="round"/><path d="M219.014 480.282l-28.035-48.566-55.158-.026c-34.374-.015-55.86-1.16-57.023-3.038-1.026-1.657 10.331-24.184 25.237-50.059 18.484-32.085 26.474-48.695 25.126-52.233-1.087-2.852-13.186-24.53-26.886-48.174-13.701-23.643-24.911-44.526-24.911-46.407 0-2.475 15.673-3.42 56.808-3.422l56.807-.004 27.957-48.613c15.377-26.736 28.898-48.612 30.047-48.612 3.153 0 11.026 12.19 36.63 56.72l23.294 40.513h56.865c43.593 0 56.834.86 56.735 3.683-.071 2.025-12.466 24.856-27.544 50.735l-27.415 47.052 27.544 47.643c15.15 26.203 27.544 49.116 27.544 50.917 0 2.288-17.128 3.274-56.864 3.274h-56.865l-23.295 40.514c-25.478 44.31-33.486 56.732-36.55 56.694-1.107-.014-14.629-21.88-30.048-48.592zm41.098-29.087c4.988-8.705 9.07-16.66 9.07-17.679 0-1.018-8.632-1.85-19.182-1.85-10.55 0-19.182.832-19.182 1.85 0 2.396 17.81 33.507 19.182 33.507.573 0 5.124-7.123 10.112-15.828zm-97.79-69.584c-5.338-9.704-10.37-17.644-11.182-17.644-.811 0-5.843 7.94-11.182 17.644l-9.707 17.643H172.03zm138.835-2.245c6.367-10.939 15.327-26.638 19.91-34.887l8.333-15-19.117-33.617-19.117-33.617H209.097l-18.65 32.065c-10.257 17.636-18.65 33.462-18.65 35.17 0 3.053 30.597 58.896 36.212 66.091 2.044 2.62 14.244 3.683 42.222 3.683h39.348zm58.885 2.245c-5.339-9.704-10.37-17.644-11.182-17.644-.812 0-5.844 7.94-11.182 17.644l-9.707 17.643h41.778zM162.128 278.4l9.512-17.63H130.251l9.707 17.644c5.339 9.704 10.37 17.638 11.182 17.63.812-.008 5.756-7.948 10.988-17.644zm197.72 0l9.512-17.63H327.97l9.707 17.644c5.338 9.704 10.37 17.638 11.182 17.63.811-.008 5.756-7.948 10.988-17.644zm-90.666-51.891c0-2.396-17.81-33.507-19.182-33.507-1.372 0-19.182 31.11-19.182 33.507 0 1.018 8.632 1.85 19.182 1.85 10.55 0 19.182-.832 19.182-1.85z"/></g></svg>