<?xml version="1.0" encoding="UTF-8" standalone="no"?>
<svg
   xmlns:dc="http://purl.org/dc/elements/1.1/"
   xmlns:cc="http://creativecommons.org/ns#"
   xmlns:rdf="http://www.w3.org/1999/02/22-rdf-syntax-ns#"
   xmlns:svg="http://www.w3.org/2000/svg"
   xmlns="http://www.w3.org/2000/svg"
   xmlns:sodipodi="http://sodipodi.sourceforge.net/DTD/sodipodi-0.dtd"
   xmlns:inkscape="http://www.inkscape.org/namespaces/inkscape"
   version="1.0"
   width="500"
   height="500"
   id="svg4580"
   sodipodi:docname="restaurant.svg"
   inkscape:version="0.92.3 (2405546, 2018-03-11)">
  <metadata
     id="metadata4586">
    <rdf:RDF>
      <cc:Work
         rdf:about="">
        <dc:format>image/svg+xml</dc:format>
        <dc:type
           rdf:resource="http://purl.org/dc/dcmitype/StillImage" />
      </cc:Work>
    </rdf:RDF>
  </metadata>
  <defs
     id="defs4584" />
  <sodipodi:namedview
     pagecolor="#ffffff"
     bordercolor="#666666"
     borderopacity="1"
     objecttolerance="10"
     gridtolerance="10"
     guidetolerance="10"
     inkscape:pageopacity="0"
     inkscape:pageshadow="2"
     inkscape:window-width="2560"
     inkscape:window-height="1520"
     id="namedview4582"
     showgrid="false"
     inkscape:zoom="0.472"
     inkscape:cx="1.059322"
     inkscape:cy="250"
     inkscape:window-x="-11"
     inkscape:window-y="-11"
     inkscape:window-maximized="1"
     inkscape:current-layer="g4578" />
  <g
     transform="translate(0,-80)"
     id="g4578">
    <circle
       cx="250"
       cy="330"
       r="240"
       id="circle4572"
       style="display:inline;fill:#7e5a20;stroke:#ffffff;stroke-width:20" />
    <path
       style="display:inline;fill:#ffffff;stroke-width:1.14400005"
       inkscape:connector-curvature="0"
       id="path4574"
       d="m 192.854,373.21 c 28.696,-13.62 49.447,-53.02 49.447,-99.53 0,-57.79 -47.137,-121.053 -71.542,-121.053 -24.405,0 -71.543,63.262 -71.543,121.053 0,46.51 20.752,85.91 49.447,99.53 l -5.94,137.66 h 56.07 z m 153.188,22.803 c 28.695,-13.619 39.175,-31.134 39.175,-77.642 L 377.76,160.226 c 0,-3.021 -2.395,-5.471 -5.35,-5.471 h -3.512 c -2.952,0 -5.348,2.45 -5.348,5.471 l 2.485,158.145 h -15.443 l -3.913,-159.685 c 0,-3.021 -2.395,-5.471 -5.35,-5.471 h -4.57 c -2.953,0 -5.348,2.45 -5.348,5.471 l 2.115,159.685 h -19.162 l 2.116,-159.685 c 0,-3.021 -2.396,-5.471 -5.35,-5.471 h -4.57 c -2.954,0 -5.349,2.45 -5.349,5.471 L 297.3,318.371 h -15.12 l 2.485,-158.125 c 0,-3.022 -2.396,-5.472 -5.35,-5.472 h -3.51 c -2.955,0 -5.35,2.45 -5.35,5.472 l -7.756,158.125 c 0,46.508 10.455,64.023 39.149,77.642 l -5.94,114.269 h 56.072 z" />
  </g>
</svg>
