<svg xmlns="http://www.w3.org/2000/svg" version="1.0" width="500" height="500"><g transform="translate(0 -80)"><circle cx="250" cy="330" r="248" fill="#fff" paint-order="fill markers stroke"/><path d="M250 80C112.008 80 0 192.01 0 330.015 0 468.015 112.003 580 250 580s250-111.985 250-249.985C500 192.011 387.993 80 250 80zm-18.76 20.769l52.155 45.288-13.793 57.792-57.934 28.27-73.295-20.402-10.89-47.057 28.11-44.556zm129.865 24.153l67.139 57.823-18.905 72.308-61.36 9.637-57.411-60.292 9.176-54.773zm-241.637 10.735c-2.386 9.843-4.783 19.709-6.998 29.552l-33.744 9.119c2.726-5.19 6.16-10.013 10.25-14.487 3.58-4.832 7.321-9.508 12.604-13.266 5.282-4.295 10.56-7.696 17.888-10.918zm10.745 94.877l67.632 19.853 17.22 76.945-70.536 57.273-61.36-1.8-15.507-85.544zm287.635 43.641l34.411 60.872-47.537 82.495-59.647-5.917-21.809-52.424 36.648-74.108zM13.126 294.944l35.631 11.985 18.905 83.044-23 43.488c-5.452 2.322-10.576-3.763-16.03-16.285-5.963-13.601-13.97-40.989-16.697-61.39-2.556-20.586-2.388-40.62 1.19-60.842zm471.367 33.455c.17 20.76-1.38 38.3-4.617 56.023-3.92 17.533-9.718 33.47-15.507 46.356-5.79 12.164-11.086 20.775-17.22 26.502l-27.588-33.67 48.205-85.544zm-255.808 13.785l76.867 21.134 24.539 60.659-42.427 58.524-95.772-21.104-31.537-66.24zM184.052 476.4l101.58 18.817 29.126 46.874-7.318 20.586c-14.144 2.157-28.48 3.759-43.646 4.117-15.678.358-32.371-.015-47.538-1.8-16.189-2.505-31.192-6.987-44.314-11.466-13.121-4.827-23.17-10.183-32.03-16.804l-1.19-24.154z" fill="#39ac3f" fill-rule="evenodd"/></g></svg>