<svg xmlns="http://www.w3.org/2000/svg" version="1.0" width="500" height="500"><g transform="matrix(1.25477 0 0 1.26215 -20.025 98.942)" stroke-width="1.118" fill="#39ac3f"><path d="M218.772-30.645C165.27-84.146 90.904-95.11 45.532-51.151-3.907-3.255 12.534 68.588 66.036 122.089c41.901 41.902 91.901 63.272 137.09 45.098 18.604 6.366 50.104 19.328 80.531 41.943-1.016 4.799.331 9.996 4.058 13.723l90.51 90.51c5.857 5.858 15.355 5.858 21.213 0l10.606-10.605c5.857-5.858 5.857-15.355 0-21.214l-90.51-90.51c-3.727-3.726-8.923-5.071-13.722-4.057-22.709-30.555-35.684-62.186-42.022-80.761 17.662-44.908-3.277-95.118-45.019-136.861zm58.886 211.623a565.206 565.206 0 00-55.349-26.43 218.977 218.977 0 0015.132-13.785 213.083 213.083 0 0013.776-15.16c6.876 16.659 15.582 35.507 26.441 55.375z"/><circle r="50.546" cy="262.381" cx="98.968"/></g></svg>