<svg xmlns="http://www.w3.org/2000/svg" version="1.0" width="500" height="500"><g transform="translate(0 -80)"><circle cx="250" cy="330" r="240" stroke="#fff" stroke-width="20"/><path style="line-height:125%;-inkscape-font-specification:NPSPICT3;text-align:start" d="M233.636 490.548h26.407V159.954h-26.407zM154.23 220.336H100.93c-8.31 0-15.785 2.97-22.424 8.911-4.987 4.612-8.306 9.727-9.958 15.345l-22.926 75.713c-.659 1.651-.988 3.136-.988 4.455 0 7.592 3.816 11.388 11.448 11.388 5.32 0 8.812-2.97 10.474-8.911l20.92-69.294h11.448L64.549 381.171h33.385v96.01c0 8.58 4.15 12.869 12.452 12.869 8.3 0 12.45-4.29 12.451-12.868v-96.495h12.466v96.993c0 8.247 4.15 12.37 12.452 12.37 8.3 0 12.45-4.123 12.451-12.37v-96.51h33.37l-34.86-123.227h11.95l20.92 69.294c1.661 5.94 5.148 8.911 10.459 8.91 7.642.001 11.463-3.795 11.463-11.387 0-1.651-.33-3.136-.988-4.455l-22.927-75.713c-1.662-5.286-5.478-10.4-11.447-15.345-7.308-5.94-15.28-8.91-23.915-8.91zm-25.404-5.452c7.632 0 14.106-2.638 19.422-7.914 5.316-5.276 7.974-11.544 7.974-18.804 0-7.591-2.658-14.025-7.974-19.302-5.316-5.275-11.79-7.913-19.422-7.914-7.308 0-13.62 2.639-18.935 7.914-5.316 5.277-7.974 11.71-7.974 19.302 0 7.26 2.658 13.528 7.974 18.804 5.316 5.276 11.627 7.914 18.935 7.914zm233.03-.483c7.307 0 13.619-2.64 18.935-7.922 5.316-5.28 7.974-11.551 7.974-18.811 0-7.582-2.658-13.93-7.974-19.045-5.316-5.115-11.628-7.672-18.935-7.673-7.308 0-13.618 2.558-18.928 7.673-5.311 5.115-7.967 11.463-7.966 19.045 0 7.26 2.655 13.53 7.966 18.811 5.31 5.281 11.62 7.922 18.928 7.922zm35.377 5.437h-71.241c-9.63 0-17.849 3.383-24.66 10.15-6.81 6.766-10.216 15.098-10.216 24.995v82.147c0 7.924 3.654 11.886 10.961 11.886 6.973 0 10.46-3.962 10.46-11.886v-80.168h12.953V474.72c0 9.898 4.981 14.846 14.945 14.846 9.962 0 14.944-4.948 14.944-14.846V348.517h12.953V474.72c0 9.898 4.981 14.846 14.945 14.846 10.297 0 15.446-4.948 15.446-14.846V256.962h12.451v80.168c0 8.246 3.486 12.37 10.46 12.37 6.983 0 10.474-4.124 10.475-12.37v-81.664c0-9.565-3.239-17.894-9.715-24.988-6.477-7.093-14.864-10.64-25.16-10.64z" font-weight="400" font-size="40" font-family="NPSPICT3" fill="#fff"/></g></svg>