<svg xmlns="http://www.w3.org/2000/svg" version="1.0" width="500" height="500"><g stroke-width="1.133" stroke="#000" stroke-linecap="round"><path d="M289.554-54.071a21.654 17.763 0 01-21.9 17.51 21.654 17.763 0 01-21.405-17.917 21.654 17.763 0 0121.783-17.608 21.654 17.763 0 0121.524 17.821" stroke-width="33.975" transform="matrix(.95664 0 0 .94921 -5.94 159.128)"/><path d="M268.026-34.31v.92c0 24.333-16.333 236.262-120.43 375.215" fill="none" stroke-width="33.975" transform="matrix(.95664 0 0 .94921 -5.94 159.128)"/><path d="M267.733-34.77v.92c0 24.333 16.333 236.262 120.43 375.216" fill="none" stroke-width="33.975" transform="matrix(.95664 0 0 .94921 -5.94 159.128)"/><path d="M394.4-156.005a158.188 141.838 0 0152.608 114.91A158.188 141.838 0 01378.54 66.889" fill="none" stroke-width="22.65" transform="matrix(.95664 0 0 .94921 -5.94 159.128)"/><path style="marker:none" d="M351.771-120.664a100.83 90.408 0 0138.077 76.607 100.83 90.408 0 01-48.526 71.702M320.777-85.377a50.808 42.171 0 0119.187 35.734 50.808 42.171 0 01-24.452 33.446" display="block" fill="none" stroke-width="22.65" transform="matrix(.95664 0 0 .94921 -5.94 159.128)"/><path transform="matrix(-.95664 0 0 .94921 -5.94 159.128)" d="M-142.29-155.79A158.188 141.838 0 01-89.685-40.88a158.188 141.838 0 01-68.468 107.985" fill="none" stroke-width="22.65"/><path transform="matrix(-.95664 0 0 .94921 -5.94 159.128)" style="marker:none" d="M-184.922-120.448a100.83 90.408 0 0138.077 76.607 100.83 90.408 0 01-48.526 71.702M-215.925-85.177a50.808 42.171 0 0119.187 35.734 50.808 42.171 0 01-24.452 33.446" display="block" fill="none" stroke-width="22.65"/><path d="M293.332 117.729l-68.504 63.413M242.86 117.729l68.504 63.413M238.352 180.961l107.231 99.262M297.496 180.961l-107.23 99.262" fill="none" stroke-width="22.65" transform="matrix(.95664 0 0 .94921 -5.94 159.128)"/></g></svg>