<svg xmlns="http://www.w3.org/2000/svg" version="1.0" width="500" height="500"><g transform="translate(0 -80)"><circle cx="250" cy="330" r="240" stroke="#fff" stroke-width="20" stroke-linejoin="round"/><path d="M250.235 149.196l-62.074.047c-28.91 0-50.181 23.18-50.181 48.436v178.892c0 24.468 19.172 44.537 38.452 47.639l-57.82 86.594h33.376l41.344-60.522h113.336l41.344 60.522h33.376l-57.82-86.594c19.28-3.102 38.476-23.17 38.476-47.639V197.679c0-25.256-21.294-48.436-50.205-48.436zm-24.585 10.372h48.7c4.399 0 8.227 3.681 8.227 8.073v14.221c0 4.392-3.619 8.167-8.227 8.167h-48.7c-4.608 0-8.227-3.775-8.227-8.167v-14.221c0-4.392 3.828-8.073 8.227-8.073zm-35.82 40.106h120.34c16.338 0 25.009 11.679 25.009 25.063v32.197c.127 15.476-11.185 24.97-25.009 24.97H189.83c-13.824 0-25.136-9.494-25.009-24.97v-32.197c0-13.384 8.671-25.063 25.009-25.063zm-2.727 154.51c12.153 0 22.024 9.83 22.024 21.965 0 12.132-9.871 21.965-22.024 21.965-12.152 0-22-9.833-22-21.965 0-12.134 9.848-21.966 22-21.966zm125.277 0c12.152 0 22 9.83 22 21.965 0 12.132-9.848 21.965-22 21.965-12.153 0-22-9.833-22-21.965 0-12.134 9.847-21.966 22-21.966z" fill="#fff" stroke-width="1.077"/></g></svg>