<svg xmlns="http://www.w3.org/2000/svg" version="1.0" width="500" height="500"><g transform="translate(0 -80)"><circle cx="250" cy="330" r="240" fill="#39ac3f" fill-opacity=".941" stroke="#fff" stroke-width="20" stroke-linejoin="round"/><g stroke-width="1.152"><path d="M272.887 135.49L24.555 260.208l309.486 4.15L559.5 146.805z" fill="#fff" fill-rule="evenodd" stroke="#fff" stroke-width="11.521" stroke-linecap="round" stroke-linejoin="round" transform="matrix(.71698 0 0 .72271 36.635 110.81)"/><path d="M127.267 365.375l26.833-79.281 186.993 5.332 124.504-67.779 49.81 57.836s-62.884 6.932-90.286 23.955c-27.402 17.023-62.945 58.006-62.945 58.006s-77.384-26.806-113.167-27.408c-68.318-1.149-117.5 28.423-121.742 29.34z" fill="#fff" fill-rule="evenodd" stroke="#fff" stroke-width="11.521" stroke-linecap="round" stroke-linejoin="round" transform="matrix(.71698 0 0 .72271 36.635 110.81)"/><path d="M132.889 313.237l-21.532.316c-3.004 5.048-5.168 11.386-7.483 18.926-3.336 10.865-6.16 23.884-7.82 36.858-6.258 48.89-6.273 71.503-6.273 71.503h14.34s-.028-21.31 6.16-69.651c1.553-12.127 4.235-24.515 7.282-34.442 3.048-9.927 7.297-17.722 8.38-18.79 2.536-2.503 4.744-3.76 6.184-4.404.321-.144.56-.234.762-.316z" fill="#fff" fill-rule="evenodd"/><path d="M106.464 433.249c0 13.106-14.638 47.744-27.744 47.744-13.107 0-19.745-34.638-19.745-47.744 0-13.107 10.638-23.744 23.745-23.744 13.106 0 23.744 10.637 23.744 23.744z" fill="#fff" stroke="#fff" stroke-width="17.829" stroke-linejoin="round" transform="matrix(.71698 0 0 .72271 36.635 110.81)"/><path d="M81.95 438.152L69.214 492.79zM106.413 437.873l-17.794 58.593zM56.08 432.502l-4.286 53.223zM65.683 436.61l-4.286 53.224zM91.95 440.152L79.214 494.79z" fill="none" stroke="#fff" stroke-width="11.521" stroke-linecap="round" stroke-linejoin="round" transform="matrix(.71698 0 0 .72271 36.635 110.81)"/></g></g></svg>