<svg xmlns="http://www.w3.org/2000/svg" version="1.0" width="500" height="500"><g stroke-width="13.972" fill="#7e5a20" stroke="#7e5a20" stroke-linecap="round" stroke-linejoin="round"><path d="M260.6 244.436c-.176.828-44.24-35.504-90.274-83.838-10.493-11.017-71.111-64.072-15.2-96.312 57.214-32.99 73.14 46.936 77.652 64.584 15.904 62.198 27.996 114.737 27.821 115.566zM320.718 244.605c-.806.263 8.628-56.063 27.468-120.097 4.295-14.596 19.933-93.62 75.809-61.32 57.178 33.054-4.078 86.809-17.105 99.54-45.913 44.873-85.367 81.614-86.172 81.877zM345.592 288.038c-.63-.566 52.867-20.56 117.742-36.26 14.788-3.578 91.044-29.548 91.008 34.993-.036 66.044-77.217 39.872-94.756 34.956-61.818-17.325-113.364-33.123-113.994-33.689zM234.152 288.481c.63-.566-52.866-20.56-117.741-36.26-14.788-3.579-91.044-29.548-91.009 34.992.036 66.045 77.217 39.873 94.757 34.957 61.817-17.326 113.363-33.123 113.993-33.689zM322.74 330.586c.175-.83 44.239 35.504 90.273 83.837 10.494 11.017 71.112 64.072 15.2 96.312-57.214 32.99-73.139-46.936-77.651-64.583-15.905-62.199-27.997-114.737-27.822-115.566zM258.622 328.416c.805-.263-8.628 56.064-27.469 120.097-4.294 14.597-19.932 93.62-75.808 61.32-57.178-33.054 4.078-86.808 17.105-99.54 45.913-44.873 85.367-81.614 86.172-81.877z" transform="matrix(.91935 0 0 1.0489 -16.493 -50.814)"/></g></svg>