<svg xmlns="http://www.w3.org/2000/svg" version="1.0" width="500" height="500"><g transform="translate(0 -80)" stroke="#fff"><circle cx="250" cy="330" r="240" fill="#0092da" stroke-width="20" stroke-linejoin="round"/><g stroke-width="1.142"><g fill="#fff" fill-rule="evenodd"><path d="M139.89 116.758l-88.892 191.76h19.561L39.42 365.074h23.155L25.58 426.288l92.354-13.84v98.209h21.957zm.267 0v393.899h21.957v-98.208l92.487 13.84-36.995-61.215h23.022l-31.14-56.556h19.695z" stroke-width="4.864" stroke-linecap="round" stroke-linejoin="round" transform="matrix(.74533 .0059 -.00592 .74416 30.678 90.17)"/><path d="M372.181 65.672L185.135 257.648h37.409v247.964h112.228v-146.34h77.384v146.34H521.82V257.648h37.41z" font-size="12" opacity=".351" stroke-width="1.222" transform="matrix(.74533 .0059 -.00592 .74416 30.678 90.17)"/></g><path d="M372.181 65.672L185.135 257.648h37.409v247.964h112.228v-146.34h77.384v146.34H521.82V257.648h37.41z" font-size="12" fill="none" stroke-width="11.423" stroke-linecap="round" stroke-linejoin="round" transform="matrix(.74533 .0059 -.00592 .74416 30.678 90.17)"/></g></g></svg>