<svg xmlns="http://www.w3.org/2000/svg" version="1.0" width="500" height="500"><g transform="translate(0 -80)"><circle cx="250" cy="330" r="240" fill="#7e5a20" stroke="#fff" stroke-width="20" stroke-linejoin="round"/><path d="M97.831 389.052c4.428 1.316 15.304.208 11.576-7.197-2.068-4.108-11.799-9.281-16.097-10.508-6.477-1.85-17.358 6.177-9.042 11.324l-1.809 5.469c-6.964-3.354-8.949-13.62-8.382-20.964.4-5.165 5.026-10.612 6.859-15.495 5.008-13.34 9.12-26.449 13.015-40.105 1.557-5.458 2.018-15.79 6.726-19.388 4.412-3.374 11.186-3.865 16.14-6.35 3.651-1.832 6.036-5.6 9.964-6.825 8.432-2.628 16.739-1.95 20.784-11.187 8.54 12.995 15.668 25.103 17.085 41.016 1.008 11.312-6.653 22.91-9.24 33.724-1.807 7.56-1.25 15.258-3.22 22.787-2.456 9.388-7.248 18.066-9.585 27.344-1.41 5.598-.147 11.966-1.88 17.317-3.103 9.58-20.814 15.303-18.708 27.341.973 5.563 7.408 6.656 11.984 7.6 10.627 2.193 22.066.84 32.553-.815 3.492-.551 7.732.13 10.458-2.619 6.582-6.633-1.194-19.169.938-26.948 1.527-5.576 6.76-10.434 9.492-15.495 5.94-11.007 10.97-22.602 14.377-34.636h.904c.217 10.607 2.758 23.902 6.795 33.724 2.549 6.202 9.113 15.1 8.934 21.876-.308 11.612-17.762 19.207-9.39 32.795 8.421 13.67 28.327-.083 38.874-2.488 5.781-1.319 13.534.407 16.372-6.648 3.917-9.739-4.034-18.97-5.368-28.217-1.527-10.582.445-21.229-1.478-31.901-1.407-7.81-7.714-16.899-7.503-24.61.149-5.426 3.97-11.851 5.21-17.318l34.362 16.265 14.468 8.345c.063 7.747-.148 17.004 1.201 24.61.645 3.632 4.029 7.301 2.997 11.056-2.012 7.315-19.776 14.821-15.778 22.572 2.197 4.26 8.263 5.72 12.484 6.813 10.69 2.771 38.697 6.934 46.556-3.17 3.463-4.452 3.176-11.86 3.177-17.22.005-13.505 1.418-27.815-1.808-41.015 11.636 7.232 14.281 21.766 20.114 33.724 2.02 4.142 6.23 10.71 4.852 15.481-2.125 7.36-23.905 18.85-13.828 28.787 2.794 2.755 7.874 2.96 11.468 4.063 10.4 3.19 41.97 8.396 46.887-5.505 4.594-12.993 3.421-35.935.224-49.206-1.882-7.81-6.253-14.586-7.017-22.787-.703-7.546 4.483-15.183 5.037-22.787.77-10.585-2.477-19.88-2.8-30.078-.207-6.561 1.977-13.317 1.977-20.053 9.932 26.538-.465 55.09 6.764 82.033 1.053 3.922 1.464 26.164 9.258 23.924 2.923-.84 3.787-5.947 3.2-8.43-2.559-10.83-7.194-20.404-7.22-31.9-.012-5.718 2.58-11.61 3.214-17.319 3.742-33.717 8.97-80.607-19.741-105.33-12.802-11.025-26.67-19.077-40.687-28.205-10.97-7.143-22.196-15.482-35.266-18.325-9.587-2.085-20.096.997-29.84.52-21.246-1.042-42.115-5.095-63.297-7.101-9.64-.913-19.187.96-28.936-.888-20.946-3.97-36.439-19.926-56.967-25.145-6.502-1.653-17.771-.52-24.415.656-6.273 1.111-9.595 5.541-14.481 9.048-14.188 10.183-32.794 26.514-40.65 42.606-4.823 9.879-5.34 23.08-8.433 33.725-4.51 15.516-13.076 28.425-15.612 44.662-2.655 17.006 1.413 34.869 1.412 51.954-.001 12.845-7.13 28.557-2.592 41.017 6.342 17.417 40.008 23.172 42.378 0z" fill="#fff"/></g></svg>