<?xml version="1.0" encoding="UTF-8" standalone="no"?>
<svg
   xmlns:dc="http://purl.org/dc/elements/1.1/"
   xmlns:cc="http://creativecommons.org/ns#"
   xmlns:rdf="http://www.w3.org/1999/02/22-rdf-syntax-ns#"
   xmlns:svg="http://www.w3.org/2000/svg"
   xmlns="http://www.w3.org/2000/svg"
   xmlns:sodipodi="http://sodipodi.sourceforge.net/DTD/sodipodi-0.dtd"
   xmlns:inkscape="http://www.inkscape.org/namespaces/inkscape"
   width="500"
   height="500"
   version="1.1"
   id="svg877"
   sodipodi:docname="naturereserve_disc_cond.svg"
   inkscape:version="0.92.3 (2405546, 2018-03-11)">
  <metadata
     id="metadata883">
    <rdf:RDF>
      <cc:Work
         rdf:about="">
        <dc:format>image/svg+xml</dc:format>
        <dc:type
           rdf:resource="http://purl.org/dc/dcmitype/StillImage" />
        <dc:title></dc:title>
      </cc:Work>
    </rdf:RDF>
  </metadata>
  <defs
     id="defs881" />
  <sodipodi:namedview
     pagecolor="#ffffff"
     bordercolor="#666666"
     borderopacity="1"
     objecttolerance="10"
     gridtolerance="10"
     guidetolerance="10"
     inkscape:pageopacity="0"
     inkscape:pageshadow="2"
     inkscape:window-width="2560"
     inkscape:window-height="1520"
     id="namedview879"
     showgrid="false"
     inkscape:zoom="0.472"
     inkscape:cx="250"
     inkscape:cy="250"
     inkscape:window-x="-11"
     inkscape:window-y="-11"
     inkscape:window-maximized="1"
     inkscape:current-layer="g875" />
  <g
     id="g875"
     style="fill:#ffffff;fill-opacity:0.6">
    <path
       style="color:#000000;opacity:0.4;isolation:auto;mix-blend-mode:normal;solid-color:#000000;solid-opacity:1;fill:#00a333;fill-opacity:1;fill-rule:evenodd"
       d="M 130.513,72.283 A 45.213,45.213 0 0 1 85.299,117.496 45.213,45.213 0 0 1 40.086,72.283 45.213,45.213 0 0 1 85.3,27.07 45.213,45.213 0 0 1 130.514,72.283 Z m 8.597,217.545 a 45.213,45.213 0 0 1 -45.213,45.214 45.213,45.213 0 0 1 -45.213,-45.214 45.213,45.213 0 0 1 45.213,-45.213 45.213,45.213 0 0 1 45.214,45.213 z M 395.05,110.95 a 45.213,45.213 0 0 1 -45.213,45.213 45.213,45.213 0 0 1 -45.213,-45.213 45.213,45.213 0 0 1 45.213,-45.214 45.213,45.213 0 0 1 45.213,45.214 z m -77.579,312.654 a 45.213,45.213 0 0 1 -45.213,45.213 45.213,45.213 0 0 1 -45.213,-45.213 45.213,45.213 0 0 1 45.213,-45.213 45.213,45.213 0 0 1 45.213,45.213 z M 486.14,298.544 a 45.213,45.213 0 0 1 -45.213,45.213 45.213,45.213 0 0 1 -45.213,-45.213 45.213,45.213 0 0 1 45.213,-45.213 45.213,45.213 0 0 1 45.213,45.213 z"
       id="path873"
       inkscape:connector-curvature="0" />
  </g>
</svg>
